<svg width="16" height="16" viewBox="0 0 16 16" fill="none" xmlns="http://www.w3.org/2000/svg">
<path fill-rule="evenodd" clip-rule="evenodd" d="M12.4759 8.92678L14.5672 10.3942C14.8882 10.6111 15.1239 10.843 15.2743 11.0901C15.4248 11.3322 15.5 11.5843 15.5 11.8465C15.5 12.0684 15.4473 12.3004 15.342 12.5424C15.2367 12.7794 15.0787 13.0164 14.8681 13.2535L14.7929 13.3442C14.7678 13.3745 14.7402 13.4047 14.7101 13.435C14.339 13.8485 13.9328 14.146 13.4915 14.3276C13.0502 14.5141 12.5186 14.6074 11.8967 14.6074C11.3952 14.6074 10.8636 14.5318 10.3019 14.3805C9.74524 14.2292 9.11083 13.9746 8.3987 13.6165C8.47894 13.435 8.54664 13.2484 8.60181 13.0568C8.66199 12.8652 8.70461 12.666 8.72969 12.4592C9.38165 12.8324 9.96088 13.0946 10.4674 13.2459C10.9789 13.3972 11.4554 13.4703 11.8967 13.4653C12.2828 13.4552 12.6414 13.3795 12.9724 13.2383C13.3034 13.1022 13.5868 12.8954 13.8225 12.6181L13.8826 12.5576L13.9428 12.4819C14.1234 12.2651 14.2136 12.0533 14.2136 11.8465C14.2136 11.7406 14.1911 11.6423 14.1459 11.5515C14.1008 11.4608 14.0256 11.3801 13.9203 11.3095L11.9042 9.96307C11.7889 9.88238 11.666 9.84456 11.5356 9.8496C11.4102 9.8496 11.2899 9.91012 11.1745 10.0311L10.5802 10.6287C10.3395 10.8758 10.0687 10.9918 9.7678 10.9767C9.4669 10.9615 9.17603 10.838 8.89519 10.606C8.63942 10.3892 8.36861 10.1446 8.08275 9.8723C7.80191 9.59999 7.50351 9.30499 7.18756 8.98729C6.85657 8.65447 6.53811 8.33174 6.2322 8.01909C5.93129 7.70139 5.668 7.40891 5.44233 7.14165C5.21164 6.8643 5.08877 6.57434 5.07372 6.27177C5.05868 5.96921 5.17653 5.69438 5.42728 5.44729L6.02909 4.84972C6.14443 4.73374 6.20461 4.61271 6.20963 4.48664C6.21464 4.36057 6.17703 4.23955 6.09679 4.12356L4.73521 2.08125C4.60481 1.87954 4.42929 1.77869 4.20863 1.77869C4.10331 1.77869 3.99549 1.8039 3.88516 1.85433C3.77984 1.89971 3.67703 1.96527 3.57673 2.051L3.5015 2.11151C3.48144 2.13168 3.45888 2.15185 3.4338 2.17202C3.15797 2.41407 2.94985 2.69899 2.80943 3.02677C2.67402 3.35455 2.60381 3.71258 2.5988 4.10087C2.59378 4.52446 2.6665 4.98587 2.81695 5.48511C2.9674 5.9793 3.21063 6.55417 3.54664 7.20973C3.35105 7.23998 3.15797 7.28032 2.9674 7.33075C2.77683 7.38118 2.59127 7.44673 2.41073 7.52742C2.07472 6.84665 1.83149 6.23143 1.68104 5.68177C1.53059 5.13211 1.45537 4.61523 1.45537 4.13113C1.45537 3.49574 1.54564 2.95365 1.72618 2.50484C1.91174 2.05604 2.21264 1.64506 2.62889 1.27189L2.80943 1.12061C3.28084 0.697019 3.74724 0.490266 4.20863 0.500352C4.46941 0.505395 4.72016 0.583557 4.96088 0.73484C5.20662 0.881079 5.43731 1.11052 5.65296 1.42317L7.11986 3.54869C7.35055 3.87143 7.4659 4.21433 7.4659 4.57741C7.47091 4.93545 7.32297 5.26575 7.02207 5.56831L6.54814 6.04485C6.45787 6.14066 6.40772 6.2516 6.39769 6.37767C6.38766 6.50374 6.42277 6.62729 6.50301 6.74831C6.5682 6.85925 6.666 6.99541 6.79639 7.15678C6.92678 7.3131 7.07472 7.48203 7.24022 7.66357C7.40572 7.84511 7.57874 8.02413 7.75928 8.20063C7.92979 8.37208 8.11785 8.5511 8.32347 8.73768C8.52909 8.92426 8.71966 9.09319 8.89519 9.24447C9.07071 9.39071 9.2011 9.49409 9.28636 9.5546C9.41174 9.63529 9.53711 9.67059 9.66249 9.6605C9.78786 9.65041 9.89569 9.59747 9.98596 9.50165L10.4674 9.02511C10.7633 8.72759 11.0893 8.58135 11.4453 8.5864C11.8064 8.5864 12.15 8.69986 12.4759 8.92678ZM5.5326 15.2126C5.09629 15.4042 4.6324 15.5 4.14092 15.5C3.64443 15.5 3.17553 15.4042 2.7342 15.2126C2.29288 15.026 1.90421 14.7638 1.5682 14.4259C1.23721 14.088 0.976429 13.6972 0.785858 13.2535C0.595286 12.8097 0.5 12.3382 0.5 11.839C0.5 11.1683 0.665496 10.5556 0.996489 10.0009C1.32748 9.44618 1.7663 9.00494 2.31294 8.67716C2.86459 8.34434 3.47392 8.17793 4.14092 8.17793C4.80291 8.17793 5.40973 8.34434 5.96138 8.67716C6.51805 9.00494 6.95938 9.44618 7.28536 10.0009C7.61635 10.5556 7.78185 11.1683 7.78185 11.839C7.78185 12.3382 7.68405 12.8072 7.48847 13.2459C7.29789 13.6897 7.0346 14.0805 6.6986 14.4183C6.36259 14.7562 5.97392 15.0209 5.5326 15.2126ZM5.56189 10.8742L5.12292 10.4296L5.38049 10.1687C5.44096 10.1099 5.50384 10.0793 5.56914 10.0768C5.63444 10.0719 5.69491 10.0977 5.75053 10.154L5.83397 10.2385C5.89202 10.2924 5.91862 10.3537 5.91379 10.4223C5.91137 10.4884 5.87993 10.5521 5.81946 10.6133L5.56189 10.8742ZM3.04779 13.4134L2.55803 13.5971C2.51449 13.6143 2.47459 13.6057 2.43831 13.5714C2.40203 13.5371 2.39477 13.4942 2.41654 13.4428L2.61244 12.9688L4.90525 10.6464L5.34784 11.091L3.04779 13.4134Z" fill="#6197FF"/>
</svg>
