<svg width="238" height="180" viewBox="0 0 238 180" fill="none" xmlns="http://www.w3.org/2000/svg">
<path d="M237.265 138.979C236.861 138.979 236.525 138.649 236.525 138.239C236.525 135.885 234.607 133.966 232.241 133.966C231.999 133.966 231.75 133.984 231.507 134.028L232.92 135.016C233.082 135.127 233.188 135.295 233.225 135.494C233.256 135.686 233.213 135.885 233.101 136.047C232.964 136.245 232.739 136.357 232.497 136.357C232.347 136.357 232.198 136.314 232.073 136.221L229.477 134.401C229.465 134.394 229.452 134.382 229.446 134.376C229.434 134.363 229.421 134.357 229.409 134.345C229.39 134.326 229.371 134.307 229.353 134.289C229.34 134.276 229.328 134.258 229.315 134.245C229.303 134.227 229.284 134.208 229.272 134.183C229.265 134.171 229.253 134.158 229.247 134.14L229.234 134.115L229.228 134.102C229.216 134.078 229.209 134.059 229.203 134.034C229.197 134.022 229.197 134.009 229.191 133.997C229.178 133.953 229.172 133.91 229.166 133.866C229.166 133.848 229.166 133.829 229.166 133.817C229.166 133.798 229.166 133.767 229.166 133.736C229.166 133.717 229.172 133.705 229.172 133.686C229.178 133.661 229.178 133.637 229.191 133.605C229.197 133.593 229.203 133.574 229.203 133.556C229.209 133.537 229.216 133.525 229.222 133.506L230.386 130.81C230.504 130.537 230.772 130.363 231.065 130.363C231.164 130.363 231.264 130.382 231.357 130.425C231.731 130.587 231.905 131.021 231.743 131.394L231.233 132.574C231.563 132.512 231.899 132.487 232.241 132.487C235.416 132.487 238 135.065 238 138.233C238 138.649 237.67 138.979 237.265 138.979Z" fill="#93DDFE"/>
<path d="M233.773 145.569C233.667 145.569 233.567 145.55 233.474 145.507C233.293 145.426 233.157 145.283 233.082 145.097C233.013 144.911 233.013 144.712 233.094 144.532L233.617 143.358C233.306 143.407 232.988 143.438 232.671 143.438H232.615C229.44 143.407 226.881 140.805 226.912 137.637C226.918 137.239 227.248 136.91 227.653 136.91C228.058 136.91 228.394 137.246 228.394 137.655C228.381 138.792 228.817 139.873 229.62 140.687C230.423 141.5 231.494 141.96 232.634 141.973H232.677C232.908 141.973 233.138 141.954 233.368 141.917L231.961 140.91C231.631 140.674 231.557 140.215 231.793 139.879C231.93 139.687 232.154 139.575 232.391 139.575C232.546 139.575 232.696 139.625 232.82 139.712L235.398 141.556C235.41 141.563 235.423 141.575 235.429 141.581C235.441 141.587 235.454 141.6 235.46 141.612C235.479 141.631 235.497 141.65 235.516 141.668C235.529 141.681 235.541 141.693 235.553 141.712C235.566 141.73 235.585 141.755 235.597 141.774C235.603 141.786 235.616 141.799 235.622 141.811L235.634 141.842L235.641 141.855C235.653 141.879 235.659 141.898 235.665 141.923C235.672 141.935 235.672 141.948 235.678 141.96C235.69 142.004 235.697 142.047 235.703 142.091C235.703 142.109 235.703 142.122 235.703 142.14C235.703 142.165 235.703 142.19 235.703 142.227C235.703 142.246 235.697 142.258 235.697 142.277C235.69 142.296 235.69 142.327 235.678 142.358C235.672 142.376 235.665 142.389 235.665 142.401C235.659 142.42 235.653 142.432 235.647 142.451L234.458 145.134C234.333 145.395 234.065 145.569 233.773 145.569Z" fill="#6BC4EC"/>
<path d="M72.616 15.3054C72.3669 14.1128 71.956 12.9574 71.402 11.8828L74.3716 10.6281C73.0393 7.95707 71.0409 5.73332 68.5257 4.12451L66.9195 6.9011C66.1039 6.3669 65.2199 5.90103 64.2611 5.54697C64.037 5.46622 63.8129 5.4041 63.5888 5.33578L64.7094 2.31693C61.9452 1.41625 59.0254 1.26717 56.1865 1.87591L57.002 4.98793C55.8005 5.23018 54.6363 5.64014 53.553 6.19298L52.2083 3.27352C49.5935 4.58417 47.4021 6.54083 45.8083 8.97578L48.5912 10.597C48.0247 11.4418 47.5391 12.3487 47.1655 13.3425C47.0971 13.5289 47.0473 13.7152 46.9912 13.8954L43.9656 12.7773C43.0317 15.5663 42.8698 18.5168 43.4862 21.3866L46.6052 20.5729C46.848 21.7841 47.2589 22.9519 47.8255 24.0451L44.8994 25.3869C46.2317 28.0268 48.2239 30.2319 50.7142 31.8221L52.339 29.0517C53.1546 29.5859 54.0324 30.0456 54.9849 30.3996C55.2028 30.4804 55.4207 30.5363 55.6324 30.6046L54.5056 33.6172C57.2947 34.5303 60.2394 34.6794 63.1032 34.0583L62.2938 30.9525C63.5016 30.704 64.6658 30.2878 65.7553 29.7226L67.0938 32.6482C69.7086 31.3251 71.9 29.3561 73.4875 26.8963L70.7171 25.2688C71.2588 24.4489 71.7257 23.5668 72.0806 22.604C72.1615 22.3929 72.2175 22.1817 72.2798 21.9643L75.2868 23.1258C76.2144 20.3306 76.37 17.3739 75.7412 14.4979L72.616 15.3054ZM56.2612 26.9211C51.3056 25.0763 48.7842 19.5728 50.6332 14.6221C52.4822 9.67769 57.9982 7.16199 62.9538 9.00684C67.9094 10.8517 70.4308 16.3552 68.5817 21.2996C66.739 26.2565 61.223 28.766 56.2612 26.9211Z" fill="#93DDFE"/>
<path d="M91.4859 11.0629L89.1326 10.6653C89.3007 9.72738 89.282 8.76458 89.0828 7.83284L91.4236 7.4353C91.1621 6.18055 90.6579 4.98171 89.917 3.91331L87.9871 5.29229C87.6945 4.86369 87.3583 4.45993 86.9661 4.09966C86.6423 3.8015 86.2875 3.54683 85.9202 3.317L87.2587 1.34792C86.2003 0.677065 85.0237 0.223618 83.8034 0L83.4237 2.3542C82.4774 2.17406 81.5 2.18649 80.5537 2.39147L80.1054 0.0434813C79.2836 0.211195 78.4743 0.484505 77.7148 0.875837C77.3475 1.06219 76.9988 1.27959 76.6626 1.50942L78.0509 3.46608C77.2541 4.0127 76.5941 4.72082 76.0836 5.52212L74.0852 4.16178C73.3942 5.22396 72.9086 6.41038 72.672 7.65891L75.0564 8.06267C74.9194 8.80185 74.8883 9.55967 74.9879 10.3237C75.0128 10.5225 75.0751 10.715 75.1187 10.9138L72.7156 11.3672C72.9895 12.6282 73.5187 13.8084 74.2471 14.8457L76.2268 13.4419C76.7685 14.2184 77.472 14.8706 78.2751 15.3862L76.8992 17.3987C77.8829 18.0385 78.9848 18.5106 80.1677 18.7466C80.2424 18.7591 80.3171 18.7715 80.3918 18.7839L80.8027 16.3924C81.7552 16.5664 82.714 16.5291 83.6353 16.3241L84.096 18.7032C85.3287 18.4361 86.4991 17.9267 87.5388 17.2124L86.1132 15.2619C86.7544 15.0072 87.4952 14.2184 88.1303 13.2121L90.11 14.5786C90.166 14.4917 90.2283 14.4109 90.2781 14.324C90.8944 13.3053 91.2929 12.1996 91.4859 11.0629ZM77.3225 7.36076C78.163 5.36062 80.2424 4.07482 82.4089 4.21147C84.5505 4.34191 86.4369 5.83891 87.047 7.88874C87.6633 9.96342 86.8914 12.2617 85.1357 13.5351C83.1622 14.97 80.3669 14.8085 78.5739 13.15C76.9988 11.6902 76.4883 9.33605 77.3225 7.36076Z" fill="#6BC4EC"/>
<path d="M111.47 36.4249L109.378 35.2385C109.864 34.4061 110.175 33.4868 110.306 32.5364L112.666 32.965C112.852 31.6854 112.784 30.3748 112.454 29.1076L110.144 29.7536C110.013 29.2443 109.833 28.7473 109.59 28.2752C109.385 27.8777 109.136 27.5174 108.868 27.1696L110.817 25.7595C110.045 24.7595 109.086 23.9209 108.003 23.2935L106.832 25.3931C105.998 24.8961 105.07 24.5731 104.099 24.4427L104.485 22.0636C103.645 21.9394 102.792 21.9208 101.926 22.0264C101.515 22.0761 101.111 22.163 100.712 22.2686L101.354 24.6042C100.407 24.8526 99.5357 25.2937 98.7761 25.8776L97.3505 23.9023C96.3294 24.6663 95.4579 25.6291 94.8042 26.7348L96.9209 27.9398C96.5349 28.592 96.2423 29.3002 96.0804 30.058C96.0368 30.2567 96.0244 30.4617 95.9995 30.6605L93.5653 30.2692C93.3847 31.5612 93.4843 32.8594 93.8143 34.0955L96.1738 33.4433C96.4228 34.3688 96.8586 35.226 97.4438 35.9901L95.4454 37.4312C96.1551 38.3753 97.0392 39.2015 98.0789 39.835C98.1473 39.8785 98.2158 39.9096 98.2843 39.9469L99.4983 37.8163C100.345 38.307 101.266 38.6051 102.206 38.7294L101.82 41.1457C103.084 41.3134 104.367 41.2327 105.599 40.9159L104.921 38.5803C105.861 38.3505 106.751 37.9343 107.542 37.3318L108.949 39.3071C109.03 39.2449 109.117 39.189 109.198 39.1207C110.132 38.3505 110.891 37.4374 111.47 36.4249ZM99.3178 28.0454C100.806 26.4366 103.215 25.9335 105.232 26.8093C107.218 27.6665 108.488 29.735 108.364 31.8904C108.233 34.0707 106.708 35.9776 104.603 36.5864C102.238 37.2697 99.6415 36.1516 98.5147 33.9713C97.5123 32.0395 97.8423 29.6356 99.3178 28.0454Z" fill="#6BC4EC"/>
<path d="M209.866 70.2781C209.798 70.1353 209.63 70.067 209.487 70.1353C203.529 72.8311 197.751 76.1233 192.31 79.9186C186.931 83.6766 181.845 87.9564 177.194 92.6337C172.544 97.3111 168.304 102.423 164.594 107.815C163.448 109.48 162.352 111.175 161.306 112.896H161.319C161.518 112.915 161.724 112.946 161.923 112.995C173.166 94.6214 190.044 79.5583 209.717 70.6571C209.866 70.5949 209.935 70.421 209.866 70.2781Z" fill="white"/>
<path d="M214.978 70.6384C215.88 69.7067 216.254 68.1476 215.482 67.1164C214.934 66.3835 213.944 66.0915 213.029 66.1598C208.335 66.5388 202.308 74.0424 202.315 74.0362C207.42 72.9678 212.817 72.8746 214.978 70.6384Z" fill="white"/>
<path d="M201.431 71.6447C201.698 70.5825 201.306 69.2843 200.298 68.8557C199.582 68.5513 198.729 68.7501 198.081 69.1911C194.788 71.4397 193.555 79.4713 193.555 79.4713C196.855 76.5332 200.789 74.1915 201.431 71.6447Z" fill="white"/>
<path d="M195.143 85.9687C196.027 85.627 196.761 84.7077 196.568 83.7822C196.431 83.13 195.871 82.6268 195.242 82.397C192.018 81.2106 185.991 84.9438 185.991 84.9438C189.695 85.7947 193.014 86.7886 195.143 85.9687Z" fill="white"/>
<path d="M185.194 80.8689C185.157 79.7633 184.416 78.6141 183.314 78.4713C182.536 78.3719 181.758 78.8005 181.253 79.4092C178.682 82.5026 180.089 90.3541 180.089 90.3541C182.897 86.77 185.281 83.5151 185.194 80.8689Z" fill="white"/>
<path d="M177.923 88.1427C177.885 87.0122 177.126 85.8382 175.999 85.6954C175.202 85.596 174.405 86.037 173.895 86.6519C171.267 89.8137 173.459 97.1123 173.459 97.1123C173.459 97.1123 178.01 90.851 177.923 88.1427Z" fill="white"/>
<path d="M171.062 93.8388C170.857 92.4909 169.773 91.1802 168.397 91.174C167.426 91.1678 166.536 91.8076 166.007 92.6213C163.299 96.7893 166.978 105.243 166.978 105.243C166.978 105.243 171.56 97.0688 171.062 93.8388Z" fill="url(#paint0_linear_2_694)"/>
<path d="M202.477 80.664C203.348 80.2043 203.996 79.1607 203.678 78.229C203.454 77.5706 202.813 77.1233 202.134 76.9618C198.648 76.1295 192.509 80.1484 192.509 80.1484C196.456 80.5708 200.379 81.7758 202.477 80.664Z" fill="white"/>
<path d="M192.211 78.0427C193.617 75.0673 192.391 73.4274 191.121 73.2038C190.368 73.0672 187.728 73.2721 187.566 77.0364C187.33 82.4343 187.778 83.689 187.778 83.6766C187.902 83.5524 190.548 81.5584 192.211 78.0427Z" fill="white"/>
<path d="M186.614 91.6461C189.863 91.4597 190.723 89.6335 190.33 88.4347C190.1 87.7265 188.699 85.5525 185.344 87.1799C182.691 88.4657 179.641 90.4907 179.653 90.4845C179.809 90.528 182.772 91.8635 186.614 91.6461Z" fill="white"/>
<path d="M180.189 98.3608C183.532 98.1683 184.416 96.2861 184.011 95.0562C183.775 94.3233 182.337 92.0871 178.881 93.7642C176.155 95.0873 173.017 97.1744 173.023 97.162C173.191 97.2117 176.235 98.5906 180.189 98.3608Z" fill="white"/>
<path d="M174.467 105.218C177.991 104.485 178.632 102.342 178.004 101.1C177.636 100.361 175.744 98.2117 172.332 100.541C169.643 102.38 166.636 105.094 166.648 105.088C166.829 105.107 170.296 106.088 174.467 105.218Z" fill="white"/>
<path d="M8.45451 89.1569C8.49809 88.9519 8.70354 88.8152 8.90898 88.8587C17.4381 90.598 25.905 93.1634 34.0917 96.4866C42.185 99.7725 50.0542 103.822 57.469 108.525C64.8837 113.221 71.9 118.6 78.3124 124.507C80.2922 126.327 82.2159 128.203 84.0836 130.129L84.0649 130.135C83.8097 130.216 83.5606 130.321 83.3116 130.445C63.2775 109.922 36.9181 95.3561 8.75334 89.6165C8.54789 89.5669 8.41093 89.3619 8.45451 89.1569Z" fill="white"/>
<path d="M1.93003 91.1383C0.485677 90.1942 -0.466846 88.2872 0.236651 86.7157C0.728477 85.6038 1.93003 84.9267 3.1378 84.7528C9.33854 83.8583 19.3805 91.8154 19.3743 91.8092C12.4327 91.9272 5.39771 93.3932 1.93003 91.1383Z" fill="white"/>
<path d="M19.8101 88.4425C19.1502 87.1443 19.2685 85.3429 20.4514 84.4857C21.2856 83.877 22.456 83.8832 23.421 84.2683C28.3642 86.2187 32.3423 96.2691 32.3423 96.2691C27.1875 93.4366 21.3914 91.5545 19.8101 88.4425Z" fill="white"/>
<path d="M32.2115 105.374C30.9602 105.194 29.7399 104.212 29.715 102.957C29.6964 102.069 30.2816 101.255 31.0286 100.771C34.8574 98.2801 43.7912 101.342 43.7912 101.342C39.2278 103.541 35.2123 105.809 32.2115 105.374Z" fill="white"/>
<path d="M43.6107 95.8203C43.3306 94.3792 43.9531 92.6586 45.3414 92.1554C46.3251 91.7952 47.4582 92.1244 48.2924 92.7642C52.5507 96.0191 53.0488 106.622 53.0488 106.622C48.3297 102.802 44.2769 99.2864 43.6107 95.8203Z" fill="url(#paint1_linear_2_694)"/>
<path d="M55.1966 103.113C54.9102 101.641 55.5452 99.8827 56.9647 99.3671C57.967 99.0006 59.1312 99.3361 59.9779 99.9883C64.3234 103.311 63.6448 113.43 63.6448 113.43C63.6448 113.43 55.8814 106.647 55.1966 103.113Z" fill="url(#paint2_linear_2_694)"/>
<path d="M65.7802 108.473C65.6494 106.66 66.6642 104.647 68.4448 104.225C69.7023 103.926 71.0533 104.492 71.9747 105.392C76.7248 110.001 74.4587 122.058 74.4587 122.058C74.4587 122.058 66.0977 112.821 65.7802 108.473Z" fill="url(#paint3_linear_2_694)"/>
<path d="M21.1237 100.659C19.8537 100.317 18.7081 99.1559 18.8389 97.8577C18.9323 96.9384 19.6358 96.1619 20.47 95.7519C24.7408 93.6462 33.8987 97.044 33.8987 97.044C28.9057 98.7584 24.168 101.473 21.1237 100.659Z" fill="white"/>
<path d="M33.6621 94.2239C30.954 90.7765 32.0621 88.2918 33.6435 87.621C34.5773 87.2234 38.0637 86.7079 39.3897 91.5467C41.2948 98.4851 41.0831 100.243 41.0831 100.224C40.8839 100.106 36.8621 98.2987 33.6621 94.2239Z" fill="white"/>
<path d="M44.9554 110.219C40.6846 110.933 39.0286 108.815 39.178 107.144C39.2652 106.156 40.4356 102.92 45.2792 104.038C49.0955 104.92 53.6589 106.653 53.6402 106.647C53.4534 106.765 50.0044 109.374 44.9554 110.219Z" fill="white"/>
<path d="M55.2838 117.039C50.8885 117.778 49.1889 115.598 49.3445 113.877C49.4379 112.859 50.6394 109.536 55.62 110.685C59.5483 111.592 64.2425 113.374 64.2238 113.368C64.0246 113.48 60.476 116.17 55.2838 117.039Z" fill="url(#paint4_linear_2_694)"/>
<path d="M64.7405 124.245C59.9467 124.332 58.4899 121.748 58.9257 119.94C59.1872 118.872 61.0051 115.524 66.1163 117.536C70.1506 119.126 74.8571 121.766 74.8385 121.754C74.6143 121.847 70.4058 124.145 64.7405 124.245Z" fill="url(#paint5_linear_2_694)"/>
<path d="M163.784 110.374C164.145 111.157 164.021 112.337 163.585 113.275C167.582 109.914 174.237 104.659 178.514 104.69C182.642 104.722 183.47 108.337 182.635 110.287C188.182 105.076 195.722 101.759 199.258 101.945C203.317 102.162 204.6 105.958 202.738 107.61C213.782 101.113 224.329 99.9199 226.495 103.504C229.334 108.206 217.424 116.971 205.452 116.027C208.945 116.393 212.245 118.778 211.821 121.543C211.373 124.456 206.791 126.102 201.119 123.773C202.445 125.139 202.831 127.909 200.067 129.674C195.255 132.742 185.194 130.351 178.682 128.264C181.154 129.319 183.158 131.04 182.505 133.438C181.011 138.91 169.057 135.438 161.362 132.481C162.614 133.332 163.517 134.568 163.018 136.37C161.275 142.681 144.497 136.568 139.1 134.879C143.893 114.554 160.547 103.405 163.784 110.374Z" fill="white"/>
<path d="M143.265 131.226C143.177 131.208 143.103 131.158 143.053 131.077C142.966 130.928 143.015 130.736 143.165 130.643C157.671 122.126 169.032 119.909 182.193 117.337C192.939 115.238 205.11 112.865 220.855 106.411C221.017 106.343 221.203 106.424 221.266 106.585C221.334 106.747 221.253 106.933 221.091 106.995C205.291 113.467 193.082 115.853 182.312 117.958C169.213 120.518 157.901 122.723 143.482 131.189C143.414 131.233 143.333 131.239 143.265 131.226Z" fill="#EEEEEE"/>
<path d="M188.917 112.293C188.836 112.275 188.768 112.231 188.718 112.163C188.618 112.02 188.662 111.821 188.805 111.728L198.324 105.349C198.467 105.249 198.666 105.293 198.76 105.436C198.859 105.579 198.816 105.777 198.673 105.871L189.154 112.25C189.085 112.293 188.998 112.306 188.917 112.293Z" fill="#EEEEEE"/>
<path d="M169.151 115.909C169.082 115.896 169.02 115.859 168.976 115.803C168.864 115.673 168.877 115.474 169.014 115.356C171.803 112.971 174.81 110.784 177.941 108.852C178.091 108.759 178.284 108.809 178.377 108.958C178.47 109.107 178.421 109.299 178.271 109.393C175.165 111.306 172.189 113.474 169.425 115.84C169.344 115.909 169.244 115.927 169.151 115.909Z" fill="#EEEEEE"/>
<path d="M150.592 124.443C150.573 124.437 150.555 124.431 150.536 124.425C150.374 124.356 150.293 124.176 150.362 124.015C152.049 119.859 154.726 116.107 158.106 113.157C158.237 113.045 158.436 113.058 158.555 113.188C158.667 113.318 158.654 113.517 158.524 113.635C155.218 116.517 152.597 120.188 150.953 124.251C150.885 124.4 150.735 124.474 150.592 124.443Z" fill="#EEEEEE"/>
<path d="M206.349 120.903L195.716 118.095C195.547 118.052 195.448 117.878 195.491 117.71C195.535 117.542 195.709 117.443 195.877 117.486L206.498 120.288C206.666 120.331 206.766 120.505 206.722 120.673C206.673 120.834 206.511 120.934 206.349 120.903Z" fill="#EEEEEE"/>
<path d="M195.765 126.065L181.365 122.555C181.197 122.512 181.091 122.344 181.135 122.176C181.179 122.008 181.347 121.909 181.515 121.946L195.902 125.456C196.07 125.499 196.176 125.667 196.133 125.835C196.095 125.996 195.933 126.102 195.765 126.065Z" fill="#EEEEEE"/>
<path d="M176.609 132.183C176.584 132.177 176.565 132.171 176.541 132.158C173.073 130.593 169.618 128.872 166.275 127.04C166.119 126.959 166.063 126.767 166.15 126.611C166.231 126.456 166.424 126.4 166.58 126.487C169.904 128.307 173.347 130.021 176.802 131.581C176.964 131.655 177.032 131.841 176.958 131.997C176.895 132.14 176.752 132.214 176.609 132.183Z" fill="#EEEEEE"/>
<path d="M157.254 135.537C157.216 135.531 157.179 135.512 157.141 135.494C154.751 133.91 152.192 132.556 149.54 131.462C149.378 131.394 149.303 131.214 149.366 131.053C149.434 130.891 149.615 130.816 149.777 130.879C152.466 131.984 155.062 133.363 157.49 134.966C157.633 135.065 157.677 135.258 157.577 135.401C157.509 135.512 157.378 135.562 157.254 135.537Z" fill="#EEEEEE"/>
<path d="M12.9494 37.9094C13.2794 36.0398 15.421 35.0086 17.326 35.0148C20.719 35.0273 23.8194 37.338 26.2038 39.7667C25.9735 39.1456 25.9859 38.4126 26.291 37.8163C29.1236 32.2569 41.9547 41.2824 45.5344 46.7734C45.2543 44.5124 47.757 43.4191 49.9359 44.413C53.8519 46.1957 58.0417 55.1529 59.4736 59.4389C59.5359 58.4885 59.8783 57.563 60.5756 56.9294C64.0557 53.7801 79.8252 60.1594 81.5747 89.0869C81.5809 87.9439 82.6641 86.919 83.8346 86.8196C92.0088 86.1302 88.7341 109.256 85.9264 120.996C79.819 116.946 56.0807 98.5596 57.8736 91.4908C58.2534 89.9938 59.455 88.6645 61.3911 88.2359C54.0511 86.1488 45.4908 80.167 45.4161 76.5953C45.385 75.0238 46.6488 73.3032 49.2138 72.8311C43.9593 71.9925 29.5345 67.9364 30.6302 62.2962C30.9042 60.8676 32.3112 59.4265 34.8139 59.2091C31.0909 58.4947 24.4855 56.4449 22.5992 53.1652C20.7999 50.0345 22.9104 46.4256 27.0007 47.0157C17.4568 45.4938 12.2957 41.6116 12.9494 37.9094Z" fill="white"/>
<path d="M83.2369 115.878C83.1498 115.847 83.0751 115.778 83.0439 115.679C74.4152 86.6333 52.4262 58.973 25.656 43.4813C25.5128 43.4005 25.463 43.2142 25.5501 43.0713C25.6311 42.9284 25.8178 42.8787 25.961 42.9657C39.0598 50.5439 51.3118 61.2216 61.4036 73.8374C71.6386 86.6333 79.321 101.044 83.6229 115.511C83.6727 115.666 83.5793 115.834 83.4237 115.884C83.3552 115.896 83.293 115.896 83.2369 115.878Z" fill="#EEEEEE"/>
<path d="M41.5438 50.4321C41.4753 50.4134 41.4193 50.3637 41.3819 50.3016C39.7259 47.5561 37.6466 45.1025 35.1999 43.0092C35.0754 42.9036 35.0629 42.711 35.1688 42.5868C35.2746 42.4626 35.4676 42.4501 35.5921 42.5557C38.0886 44.6925 40.2053 47.1958 41.8924 49.9972C41.9796 50.1401 41.9298 50.3203 41.7928 50.4072C41.7181 50.4507 41.6247 50.4569 41.5438 50.4321Z" fill="#EEEEEE"/>
<path d="M53.7398 61.3272C53.6402 61.2962 53.5655 61.2154 53.5406 61.1036C52.8807 58.004 51.5857 54.979 49.799 52.3577C49.7056 52.221 49.743 52.0347 49.8799 51.9415C50.0169 51.8483 50.2036 51.8856 50.297 52.0222C52.1274 54.7056 53.4472 57.8052 54.1258 60.9794C54.1632 61.1409 54.0573 61.3024 53.8955 61.3334C53.8457 61.3458 53.7896 61.3396 53.7398 61.3272Z" fill="#EEEEEE"/>
<path d="M70.7296 78.8191C70.6175 78.7818 70.5366 78.6825 70.5241 78.5644C70.0759 73.5703 68.258 68.7998 65.2635 64.7684C65.1639 64.638 65.195 64.4516 65.3257 64.3523C65.4565 64.2529 65.6432 64.2839 65.7429 64.4144C68.7996 68.5327 70.6611 73.4088 71.1156 78.5147C71.128 78.6762 71.0097 78.8253 70.8417 78.8377C70.8105 78.8377 70.7669 78.8315 70.7296 78.8191Z" fill="#EEEEEE"/>
<path d="M41.3508 65.402C40.2364 65.0355 39.1531 64.5945 38.101 64.0914C37.9516 64.0168 37.8893 63.8429 37.964 63.6938C38.0387 63.5448 38.2131 63.4826 38.3625 63.5572C41.8426 65.2281 45.7274 66.1474 49.5935 66.222C49.7616 66.222 49.8923 66.3586 49.8861 66.5263C49.8861 66.694 49.7492 66.8245 49.5811 66.8183C46.7982 66.7624 44.0029 66.2779 41.3508 65.402Z" fill="#EEEEEE"/>
<path d="M30.4995 54.0721C28.7065 53.482 26.982 52.6931 25.3634 51.7365C25.2202 51.6495 25.1766 51.4694 25.2575 51.3265C25.3447 51.1837 25.5252 51.1402 25.6684 51.2209C28.8497 53.1093 32.4855 54.3019 36.1711 54.6746C36.3329 54.6932 36.4574 54.8361 36.4388 55.0038C36.4201 55.1653 36.2769 55.2895 36.1088 55.2709C34.21 55.0845 32.3236 54.6746 30.4995 54.0721Z" fill="#EEEEEE"/>
<path d="M58.0978 81.7199C56.5102 81.1919 54.985 80.4714 53.578 79.5645C53.441 79.4775 53.3974 79.2912 53.4908 79.1483C53.578 79.0117 53.7647 78.9682 53.9079 79.0614C56.4604 80.7074 59.4114 81.7323 62.4371 82.0367C62.6051 82.0554 62.7234 82.1982 62.7048 82.3659C62.6861 82.5274 62.5429 82.6517 62.3748 82.633C60.9242 82.4839 59.4861 82.1796 58.0978 81.7199Z" fill="#EEEEEE"/>
<path d="M82.5645 102.516C82.4213 102.467 82.3342 102.324 82.3653 102.175C82.9692 99.1559 83.1871 96.0687 83.0252 93.0002C83.019 92.8325 83.1435 92.6958 83.3054 92.6834C83.4735 92.6772 83.6104 92.8014 83.6229 92.9629C83.791 96.0812 83.5668 99.218 82.9567 102.287C82.9256 102.448 82.7637 102.554 82.6019 102.523C82.5894 102.529 82.577 102.523 82.5645 102.516Z" fill="#EEEEEE"/>
<path d="M70.9786 99.659C68.0464 98.69 65.3195 97.1185 63.016 95.0562C62.8915 94.9444 62.8853 94.7581 62.9911 94.6339C63.1032 94.5096 63.29 94.5034 63.4145 94.609C66.1289 97.0315 69.4347 98.7646 72.9771 99.6031C73.1389 99.6404 73.2385 99.8019 73.2012 99.9634C73.1638 100.125 73.002 100.224 72.8401 100.187C72.2113 100.044 71.5887 99.864 70.9786 99.659Z" fill="#EEEEEE"/>
<path d="M27.4801 126.12C33.0894 124.182 38.9477 122.748 44.9119 121.859C50.8076 120.984 56.8402 120.636 62.8293 120.828C68.8246 121.021 74.8198 121.754 80.647 123.008C82.8571 123.481 85.0424 124.046 87.2027 124.667C87.0781 124.816 86.9536 124.959 86.8353 125.108C67.5794 119.617 46.5617 120.07 27.6544 126.617C27.5174 126.667 27.368 126.593 27.3182 126.456C27.2684 126.319 27.3431 126.17 27.4801 126.12Z" fill="white"/>
<path d="M24.1867 129.891C23.0101 129.841 21.7836 129.04 21.6466 127.872C21.547 127.046 22.014 126.226 22.6614 125.704C25.9859 123.021 34.652 124.22 34.652 124.22C30.6178 126.704 27.0069 130.015 24.1867 129.891Z" fill="white"/>
<path d="M33.7181 122.083C32.8777 121.549 32.3174 120.443 32.7096 119.524C32.9897 118.878 33.6746 118.474 34.3718 118.362C37.9516 117.791 43.8037 122.338 43.8037 122.338C39.7944 122.462 35.7415 123.369 33.7181 122.083Z" fill="white"/>
<path d="M46.8543 127.636C46.0574 127.965 44.999 127.81 44.5445 127.077C44.2208 126.562 44.2768 125.878 44.5445 125.332C45.9142 122.53 52.227 121.232 52.227 121.232C50.3219 124.12 48.7593 126.853 46.8543 127.636Z" fill="white"/>
<path d="M50.185 118.039C49.5189 117.288 49.2761 116.058 49.9173 115.275C50.3655 114.722 51.15 114.523 51.8597 114.604C55.4955 115.045 59.4986 121.126 59.4986 121.126C55.3959 120.518 51.7912 119.847 50.185 118.039Z" fill="white"/>
<path d="M59.5297 118.313C58.8448 117.542 58.602 116.288 59.2557 115.486C59.7164 114.921 60.5133 114.716 61.2417 114.803C64.9522 115.25 68.1024 121.456 68.1024 121.456C68.1024 121.456 61.1732 120.157 59.5297 118.313Z" fill="white"/>
<path d="M67.6168 117.791C66.907 116.766 66.795 115.225 67.6915 114.362C68.3265 113.747 69.3101 113.617 70.1693 113.822C74.5646 114.89 77.4595 122.791 77.4595 122.791C77.4595 122.791 69.3226 120.244 67.6168 117.791Z" fill="white"/>
<path d="M38.6987 128.711C37.8333 128.953 36.7563 128.661 36.3765 127.854C36.1088 127.276 36.252 126.58 36.5944 126.046C38.3625 123.319 44.9181 122.139 44.9181 122.139C42.596 124.884 40.7718 128.133 38.6987 128.711Z" fill="white"/>
<path d="M43.7912 120.555C40.9959 119.462 40.7718 117.611 41.4629 116.666C41.8737 116.107 43.7352 114.592 46.2068 116.983C49.7554 120.412 50.2472 121.524 50.2348 121.518C50.0854 121.511 47.0971 121.847 43.7912 120.555Z" fill="white"/>
<path d="M56.0184 126.065C53.7647 127.972 52.0527 127.301 51.5546 126.263C51.262 125.648 50.8138 123.331 54.0449 122.313C56.5912 121.505 59.8721 120.94 59.8596 120.946C59.7849 121.07 58.683 123.81 56.0184 126.065Z" fill="white"/>
<path d="M64.4604 126.493C62.1444 128.456 60.3826 127.76 59.8721 126.692C59.567 126.058 59.1063 123.679 62.4308 122.623C65.0518 121.791 68.4261 121.213 68.4136 121.213C68.3389 121.356 67.1996 124.176 64.4604 126.493Z" fill="white"/>
<path d="M72.5288 127.456C69.7522 129.177 67.9903 128.158 67.6168 126.94C67.3927 126.22 67.2868 123.611 70.9911 123.021C73.9109 122.555 77.5965 122.474 77.5841 122.474C77.472 122.611 75.8097 125.425 72.5288 127.456Z" fill="white"/>
<path d="M137.437 143.985V158.359H169.543V143.985L153.487 155.228L137.437 143.985Z" fill="#6BC4EC"/>
<path d="M137.437 143.985H169.543L153.487 155.228L137.437 143.985Z" fill="#93DDFE"/>
<g opacity="0.2">
<path opacity="0.2" d="M160.815 140.755C159.843 140.755 158.872 140.451 158.007 139.848L155.697 138.233C154.259 137.227 152.478 137.227 151.04 138.233L148.731 139.848C147 141.059 144.852 141.059 143.121 139.848L140.812 138.233C139.373 137.227 137.593 137.227 136.155 138.233C135.943 138.382 135.663 138.308 135.532 138.065C135.402 137.823 135.464 137.513 135.675 137.364C137.406 136.152 139.554 136.152 141.285 137.364L143.594 138.979C145.033 139.985 146.813 139.985 148.251 138.979L150.561 137.364C152.292 136.152 154.44 136.152 156.17 137.364L158.48 138.979C159.918 139.985 161.699 139.985 163.137 138.979L165.446 137.364C167.177 136.152 169.325 136.152 171.056 137.364L173.366 138.979C174.804 139.985 176.584 139.985 178.022 138.979L180.332 137.364C182.063 136.152 184.211 136.152 185.941 137.364C186.153 137.513 186.221 137.829 186.091 138.065C185.96 138.308 185.68 138.376 185.468 138.233C184.03 137.227 182.249 137.227 180.811 138.233L178.502 139.848C176.771 141.059 174.623 141.059 172.892 139.848L170.583 138.233C169.145 137.227 167.364 137.227 165.926 138.233L163.616 139.848C162.757 140.451 161.786 140.755 160.815 140.755Z" fill="#EEEEEE"/>
</g>
<g opacity="0.9">
<path opacity="0.9" d="M174.586 45.4379C173.017 45.4379 143.968 45.4379 145.506 45.4379C145.201 45.4379 144.921 45.3137 144.721 45.1149C144.522 44.9161 144.398 44.6366 144.398 44.3323C144.398 43.5247 144.398 7.08745 144.398 8.38567C144.398 8.0813 144.522 7.80178 144.721 7.60301C144.921 7.40424 145.201 7.28001 145.506 7.28001C147.299 7.28001 176.329 7.28001 174.586 7.28001C174.891 7.28001 175.171 7.40424 175.37 7.60301C175.569 7.80178 175.694 8.0813 175.694 8.38567C175.694 9.70253 175.694 45.4876 175.694 44.3323C175.694 44.6366 175.569 44.9161 175.37 45.1149C175.165 45.3137 174.891 45.4379 174.586 45.4379Z" fill="white"/>
</g>
<path d="M172.052 24.9582H148.282V25.5049H172.052V24.9582Z" fill="#C0E1FF"/>
<path d="M172.052 26.2006H148.282V26.7472H172.052V26.2006Z" fill="#C0E1FF"/>
<path d="M172.052 27.4491H148.282V27.9957H172.052V27.4491Z" fill="#C0E1FF"/>
<path d="M164.93 34.2757H148.282V34.8223H164.93V34.2757Z" fill="#C0E1FF"/>
<path d="M172.052 35.5242H148.282V36.0708H172.052V35.5242Z" fill="#C0E1FF"/>
<path d="M172.052 36.7665H148.282V37.3131H172.052V36.7665Z" fill="#C0E1FF"/>
<path d="M162.296 29.617H148.282V30.1636H162.296V29.617Z" fill="#C0E1FF"/>
<path d="M172.052 30.8655H148.282V31.4121H172.052V30.8655Z" fill="#C0E1FF"/>
<path d="M172.052 32.1078H148.282V32.6544H172.052V32.1078Z" fill="#C0E1FF"/>
<path d="M148.731 23.3743H171.361C171.554 23.3743 171.728 23.2935 171.853 23.1693C171.977 23.0451 172.058 22.8711 172.058 22.6786V10.5597C172.058 10.3672 171.977 10.1933 171.853 10.069C171.728 9.94479 171.554 9.86404 171.361 9.86404H148.731C148.538 9.86404 148.363 9.94479 148.239 10.069C148.114 10.1933 148.033 10.3672 148.033 10.5597V22.6786C148.033 22.8711 148.114 23.0451 148.239 23.1693C148.363 23.2935 148.538 23.3743 148.731 23.3743Z" fill="#C0E1FF"/>
<path d="M150.001 21.9208C150.275 21.9208 158.829 21.9208 158.287 21.9208C158.399 21.9208 158.499 21.8773 158.567 21.8027C158.642 21.7282 158.685 21.6288 158.685 21.5232C158.685 21.1878 158.685 11.3921 158.685 11.7089C158.685 11.5971 158.642 11.4977 158.567 11.4294C158.492 11.3548 158.393 11.3113 158.287 11.3113C158.013 11.3113 149.459 11.3113 150.001 11.3113C149.889 11.3113 149.789 11.3548 149.721 11.4294C149.646 11.5039 149.602 11.6033 149.602 11.7089C149.602 12.0443 149.602 21.84 149.602 21.5232C149.602 21.635 149.646 21.7344 149.721 21.8027C149.789 21.8773 149.889 21.9208 150.001 21.9208Z" fill="white"/>
<path d="M154.022 17.1689H154.004C153.419 17.1689 152.478 16.2123 152.478 15.1874C152.478 14.1625 153.163 13.4668 154.041 13.4668C154.882 13.4668 155.566 14.1687 155.566 15.1874C155.566 16.2123 154.626 17.1689 154.022 17.1689Z" fill="#6197FF"/>
<path d="M150.885 19.3367C150.947 19.0448 151.04 18.815 151.171 18.6348C151.308 18.4547 151.482 18.318 151.713 18.2124C152.018 18.0634 152.379 17.9205 152.765 17.8211C153.157 17.7155 153.574 17.6534 154.016 17.6534C154.458 17.6534 154.875 17.7155 155.268 17.8211C155.654 17.9267 156.015 18.0696 156.32 18.2124C156.55 18.3242 156.731 18.4547 156.861 18.6348C156.998 18.815 157.092 19.0386 157.148 19.3367C157.16 19.4113 157.198 19.7591 157.247 20.312H150.773C150.835 19.7591 150.872 19.4051 150.885 19.3367Z" fill="#6197FF"/>
<path d="M167.146 14.5227H162.913C162.844 14.5227 162.788 14.4668 162.788 14.3985C162.788 14.3302 162.844 14.2743 162.913 14.2743H167.146C167.215 14.2743 167.271 14.3302 167.271 14.3985C167.264 14.4668 167.208 14.5227 167.146 14.5227Z" fill="#6197FF"/>
<path d="M168.279 13.7028H162.913C162.844 13.7028 162.788 13.6469 162.788 13.5786C162.788 13.5103 162.844 13.4543 162.913 13.4543H168.279C168.348 13.4543 168.404 13.5103 168.404 13.5786C168.398 13.6469 168.348 13.7028 168.279 13.7028Z" fill="#6197FF"/>
<path d="M169.412 12.8829H162.907C162.838 12.8829 162.782 12.827 162.782 12.7586C162.782 12.6903 162.838 12.6344 162.907 12.6344H169.412C169.481 12.6344 169.537 12.6903 169.537 12.7586C169.537 12.827 169.481 12.8829 169.412 12.8829Z" fill="#6197FF"/>
<path d="M162.01 14.7961H159.85C159.775 14.7961 159.713 14.7339 159.713 14.6594V12.504C159.713 12.4294 159.775 12.3673 159.85 12.3673H162.01C162.085 12.3673 162.147 12.4294 162.147 12.504V14.6594C162.147 14.7339 162.085 14.7961 162.01 14.7961Z" fill="white"/>
<path d="M160.777 14.2308C160.74 14.2308 160.703 14.2184 160.678 14.1873L160.142 13.6531C160.086 13.5972 160.086 13.5103 160.142 13.4544C160.198 13.3984 160.285 13.3984 160.342 13.4544L160.765 13.8767L161.499 12.9761C161.549 12.9139 161.636 12.9077 161.692 12.9574C161.755 13.0071 161.761 13.0941 161.711 13.15L160.883 14.1749C160.858 14.206 160.821 14.2246 160.784 14.2246L160.777 14.2308Z" fill="#C0E1FF"/>
<path d="M167.146 17.436H162.913C162.844 17.436 162.788 17.3801 162.788 17.3118C162.788 17.2434 162.844 17.1875 162.913 17.1875H167.146C167.215 17.1875 167.271 17.2434 167.271 17.3118C167.264 17.3801 167.208 17.436 167.146 17.436Z" fill="#6197FF"/>
<path d="M169.412 16.6161H162.907C162.838 16.6161 162.782 16.5602 162.782 16.4918C162.782 16.4235 162.838 16.3676 162.907 16.3676H169.412C169.481 16.3676 169.537 16.4235 169.537 16.4918C169.537 16.5602 169.481 16.6161 169.412 16.6161Z" fill="#6197FF"/>
<path d="M169.412 15.7961H162.907C162.838 15.7961 162.782 15.7402 162.782 15.6719C162.782 15.6036 162.838 15.5477 162.907 15.5477H169.412C169.481 15.5477 169.537 15.6036 169.537 15.6719C169.537 15.7402 169.481 15.7961 169.412 15.7961Z" fill="#6197FF"/>
<path d="M162.01 17.7093H159.85C159.775 17.7093 159.713 17.6472 159.713 17.5726V15.4172C159.713 15.3427 159.775 15.2806 159.85 15.2806H162.01C162.085 15.2806 162.147 15.3427 162.147 15.4172V17.5726C162.147 17.6472 162.085 17.7093 162.01 17.7093Z" fill="white"/>
<path d="M160.777 17.144C160.74 17.144 160.703 17.1316 160.678 17.1006L160.142 16.5664C160.086 16.5105 160.086 16.4235 160.142 16.3676C160.198 16.3117 160.285 16.3117 160.341 16.3676L160.765 16.79L161.499 15.8893C161.549 15.8272 161.636 15.821 161.692 15.8707C161.755 15.9204 161.761 16.0073 161.711 16.0632L160.883 17.0881C160.858 17.1192 160.821 17.1378 160.783 17.1378L160.777 17.144Z" fill="#C0E1FF"/>
<path d="M167.146 20.3492H162.913C162.844 20.3492 162.788 20.2933 162.788 20.225C162.788 20.1567 162.844 20.1008 162.913 20.1008H167.146C167.215 20.1008 167.271 20.1567 167.271 20.225C167.271 20.2933 167.208 20.3492 167.146 20.3492Z" fill="#6197FF"/>
<path d="M168.279 19.5293H162.913C162.844 19.5293 162.788 19.4734 162.788 19.4051C162.788 19.3367 162.844 19.2808 162.913 19.2808H168.279C168.348 19.2808 168.404 19.3367 168.404 19.4051C168.398 19.4734 168.348 19.5293 168.279 19.5293Z" fill="#6197FF"/>
<path d="M169.412 18.7094H162.907C162.838 18.7094 162.782 18.6535 162.782 18.5851C162.782 18.5168 162.838 18.4609 162.907 18.4609H169.412C169.481 18.4609 169.537 18.5168 169.537 18.5851C169.537 18.6535 169.481 18.7094 169.412 18.7094Z" fill="#6197FF"/>
<path d="M162.01 20.6225H159.85C159.775 20.6225 159.713 20.5604 159.713 20.4859V18.3305C159.713 18.2559 159.775 18.1938 159.85 18.1938H162.01C162.085 18.1938 162.147 18.2559 162.147 18.3305V20.4859C162.147 20.5604 162.085 20.6225 162.01 20.6225Z" fill="white"/>
<path d="M160.777 20.0573C160.74 20.0573 160.703 20.0449 160.678 20.0138L160.142 19.4796C160.086 19.4237 160.086 19.3367 160.142 19.2808C160.198 19.2249 160.285 19.2249 160.341 19.2808L160.765 19.7032L161.499 18.8025C161.549 18.7404 161.636 18.7342 161.692 18.7839C161.755 18.8336 161.761 18.9206 161.711 18.9765L160.883 20.0014C160.858 20.0324 160.821 20.0511 160.783 20.0511L160.777 20.0573Z" fill="#C0E1FF"/>
<path d="M181.129 35.0645L160.043 49.8357V68.719H202.209V49.8357L181.129 35.0645Z" fill="#6BC4EC"/>
<path d="M197.274 67.1277V36.6536L163.164 36.6536V67.1277H197.274Z" fill="#6197FF"/>
<path d="M196.718 37.2075H163.722V66.576H196.718V37.2075Z" fill="white"/>
<path d="M192.404 39.6673H184.783V48.6928H192.404V39.6673Z" fill="#B4D8FC"/>
<path d="M191.644 41.2016C191.644 41.5991 191.32 41.9221 190.922 41.9221C190.523 41.9221 190.2 41.5991 190.2 41.2016C190.2 40.8041 190.523 40.4811 190.922 40.4811C191.32 40.4811 191.644 40.8041 191.644 41.2016Z" fill="#E5F3FF"/>
<path d="M184.783 46.4939C184.839 46.4069 187.087 42.8415 187.087 42.8415L189.291 45.7671L190.455 45.1522L192.397 46.5001V48.6928H184.777V46.4939H184.783Z" fill="#B4D8FC"/>
<path d="M192.403 57.7804H168.043V58.9668H192.403V57.7804Z" fill="#E5F3FF"/>
<path d="M192.403 55.1715H168.043V56.3579H192.403V55.1715Z" fill="#E5F3FF"/>
<path d="M192.403 52.5564H168.043V53.7428H192.403V52.5564Z" fill="#E5F3FF"/>
<path d="M192.403 49.9413H168.043V51.1277H192.403V49.9413Z" fill="#E5F3FF"/>
<path d="M182.555 47.5064H168.043V48.6928H182.555V47.5064Z" fill="#E5F3FF"/>
<path d="M182.555 44.8913H168.043V46.0777H182.555V44.8913Z" fill="#E5F3FF"/>
<path d="M182.555 42.2762H168.043V43.4626H182.555V42.2762Z" fill="#E5F3FF"/>
<path d="M182.555 39.6673H168.043V40.8537H182.555V39.6673Z" fill="#E5F3FF"/>
<path d="M160.043 49.8357V68.719H202.209V49.8357L181.129 64.6069L160.043 49.8357Z" fill="#93DDFE"/>
<path d="M120.815 163.775C118.325 163.775 115.959 162.986 113.967 161.496C98.8197 150.153 87.1591 136.233 79.3148 120.12C71.4704 104.026 67.5483 85.9749 67.6541 66.4704C67.6728 63.054 69.2105 59.8551 71.8689 57.6996C73.8984 56.0536 76.451 55.1529 79.0533 55.1529C79.8315 55.1529 80.6719 55.2957 82.054 55.5318C84.5007 55.948 88.1987 56.5815 92.7497 56.5815C100.911 56.5815 108.283 54.4944 114.664 50.3824C116.5 49.1959 118.63 48.5686 120.815 48.5561H120.865C123.056 48.5561 125.179 49.1773 127.022 50.3575C133.434 54.4758 140.787 56.5629 148.874 56.5629C153.269 56.5629 156.942 55.9542 159.376 55.5566C160.833 55.3144 161.798 55.1591 162.651 55.1591C165.253 55.1591 167.806 56.0598 169.836 57.7058C172.5 59.8613 174.038 63.0603 174.057 66.4828C174.156 85.7575 170.352 103.566 162.738 119.418C154.931 135.68 143.14 149.836 127.694 161.483C125.702 162.986 123.33 163.781 120.834 163.781H120.815V163.775Z" fill="url(#paint6_linear_2_694)"/>
<path d="M120.815 163.775C118.325 163.775 115.959 162.986 113.967 161.496C98.8197 150.153 87.1591 136.233 79.3148 120.12C71.4704 104.026 67.5483 85.9749 67.6541 66.4704C67.6728 63.054 69.2105 59.8551 71.8689 57.6996C73.8984 56.0536 76.451 55.1529 79.0533 55.1529C79.8315 55.1529 80.6719 55.2957 82.054 55.5318C84.5007 55.948 88.1987 56.5815 92.7497 56.5815C100.911 56.5815 108.283 54.4944 114.664 50.3824C116.5 49.1959 118.63 48.5686 120.815 48.5561H120.865C123.056 48.5561 125.179 49.1773 127.022 50.3575C133.434 54.4758 140.787 56.5629 148.874 56.5629C153.269 56.5629 156.942 55.9542 159.376 55.5566C160.833 55.3144 161.798 55.1591 162.651 55.1591C165.253 55.1591 167.806 56.0598 169.836 57.7058C172.5 59.8613 174.038 63.0603 174.057 66.4828C174.156 85.7575 170.352 103.566 162.738 119.418C154.931 135.68 143.14 149.836 127.694 161.483C125.702 162.986 123.33 163.781 120.834 163.781H120.815V163.775Z" fill="#6197FF"/>
<path d="M120.827 159.551C118.922 159.551 117.104 158.949 115.579 157.806C101.235 147.066 90.2034 133.891 82.7762 118.654C75.3553 103.417 71.6385 86.3165 71.7382 67.8183C71.7506 65.2033 72.9273 62.7559 74.963 61.1098C76.5132 59.8551 78.4681 59.1594 80.4603 59.1594C81.0206 59.1594 81.7988 59.2898 82.9754 59.4948C85.2665 59.8861 89.1077 60.5383 93.7022 60.5383C102.038 60.5383 109.584 58.4015 116.127 54.1777C117.534 53.2708 119.159 52.7863 120.834 52.78H120.865C122.539 52.78 124.17 53.2583 125.571 54.159C132.146 58.3829 139.672 60.5197 147.934 60.5197C152.366 60.5197 156.033 59.9172 158.455 59.5134C159.756 59.3022 160.609 59.1594 161.244 59.1594C163.236 59.1594 165.185 59.8489 166.735 61.1036C168.771 62.7497 169.948 65.197 169.96 67.8183C170.06 86.0929 166.455 102.97 159.252 117.977C151.868 133.363 140.706 146.755 126.076 157.787C124.55 158.936 122.732 159.551 120.827 159.551Z" fill="#EEEEEE"/>
<path d="M120.821 158.526C119.14 158.526 117.534 157.992 116.189 156.986C101.976 146.345 91.0439 133.295 83.6914 118.207C76.3389 103.113 72.6596 86.1612 72.7592 67.8246C72.7716 65.5201 73.8051 63.3584 75.6043 61.9049C76.9739 60.793 78.6984 60.1843 80.4541 60.1843C80.9272 60.1843 81.6681 60.3085 82.7949 60.5011C85.1233 60.8986 89.0143 61.5633 93.6898 61.5633C102.225 61.5633 109.957 59.3706 116.669 55.0411C117.908 54.2398 119.346 53.8174 120.821 53.805H120.852C122.334 53.805 123.766 54.2273 125.005 55.0162C131.747 59.3457 139.461 61.5384 147.921 61.5384C152.441 61.5384 156.152 60.9235 158.611 60.5197C159.812 60.3209 160.684 60.1781 161.238 60.1781C162.994 60.1781 164.718 60.7868 166.082 61.8925C167.881 63.346 168.914 65.5076 168.927 67.8121C169.02 85.9314 165.453 102.653 158.318 117.517C151.003 132.754 139.946 146.022 125.447 156.955C124.108 157.986 122.508 158.526 120.821 158.526Z" fill="#6197FF"/>
<path d="M106.95 120.542C103.925 120.542 101.459 118.219 101.459 115.368V104.374C101.472 93.1058 101.503 92.9567 101.578 92.6275C102.076 90.4224 104.062 88.7825 106.409 88.5589V84.0493C106.409 76.7196 112.883 70.7626 120.846 70.7626C128.809 70.7626 135.283 76.7258 135.283 84.0493V88.5527C137.755 88.7763 139.766 90.528 140.164 92.8822C140.202 93.1182 140.245 93.3543 140.233 115.35C140.233 118.213 137.767 120.53 134.742 120.53H106.95V120.542ZM126.119 88.5341C126.119 87.2855 126.125 86.3538 126.125 85.6581C126.138 83.7946 126.132 83.6269 126.026 83.1734C125.54 81.0242 123.361 79.4651 120.846 79.4651C118.331 79.4651 116.152 81.0242 115.666 83.1734C115.56 83.6331 115.554 83.776 115.567 85.6519C115.573 86.3476 115.579 87.2855 115.573 88.5403H126.119V88.5341Z" fill="#6197FF"/>
<path d="M138.054 93.2487C137.817 91.8324 136.466 90.6771 134.748 90.6771H133.142V84.0493C133.142 77.8439 127.563 72.9057 120.852 72.9057C114.129 72.9057 108.563 77.8563 108.563 84.0493V90.6771H106.957C105.294 90.6771 103.987 91.7579 103.682 93.0996C103.595 93.4909 103.613 115.356 103.613 115.368C103.613 116.971 105.033 118.399 106.957 118.399H134.754C136.665 118.399 138.097 116.983 138.097 115.368C138.091 115.356 138.103 93.5468 138.054 93.2487ZM123.865 112.362H117.827C117.441 112.362 117.104 112.2 116.887 111.952C116.718 111.765 116.619 111.536 116.619 111.281C116.619 111.2 116.625 111.113 116.644 111.026L118.2 104.43C117.073 103.684 116.332 102.479 116.332 101.119C116.332 98.8577 118.356 97.0191 120.852 97.0191C123.349 97.0191 125.372 98.8515 125.372 101.119C125.372 102.479 124.637 103.684 123.504 104.43L125.061 111.026C125.073 111.07 125.079 111.113 125.079 111.157C125.111 111.455 125.005 111.734 124.812 111.952C124.594 112.2 124.251 112.362 123.865 112.362ZM113.425 90.6771C113.469 84.0928 113.319 83.8443 113.574 82.6952C114.266 79.6328 117.266 77.3159 120.846 77.3159C124.426 77.3159 127.427 79.6266 128.118 82.6952C128.379 83.8381 128.223 84.099 128.267 90.6771H113.425Z" fill="#EEEEEE"/>
<path opacity="0.9" d="M208.603 180C208.148 180 188.681 180 189.042 180C188.469 180 187.952 179.77 187.572 179.391C187.199 179.019 186.962 178.497 186.962 177.925C186.962 176.236 186.962 147.352 186.962 149.631C186.962 149.06 187.193 148.544 187.572 148.166C187.946 147.793 188.469 147.557 189.042 147.557C189.496 147.557 208.964 147.557 208.603 147.557C209.175 147.557 209.692 147.787 210.072 148.166C210.445 148.538 210.682 149.06 210.682 149.631C210.682 151.861 210.682 180.155 210.682 177.925C210.682 178.497 210.452 179.012 210.072 179.391C209.692 179.764 209.175 180 208.603 180Z" fill="white"/>
<path d="M194.844 174.77H193.811L194.539 174.043C194.645 173.937 194.645 173.77 194.539 173.67C194.433 173.565 194.265 173.565 194.165 173.67L193.437 174.397V173.366C193.437 173.217 193.319 173.099 193.169 173.099C193.02 173.099 192.902 173.217 192.902 173.366V174.397L192.173 173.67C192.067 173.565 191.899 173.565 191.8 173.67C191.694 173.776 191.694 173.944 191.8 174.043L192.528 174.77H191.495C191.345 174.77 191.227 174.888 191.227 175.037C191.227 175.186 191.345 175.304 191.495 175.304H192.528L191.8 176.031C191.694 176.136 191.694 176.304 191.8 176.403C191.849 176.453 191.918 176.478 191.986 176.478C192.055 176.478 192.123 176.453 192.173 176.403L192.902 175.677V176.708C192.902 176.857 193.02 176.975 193.169 176.975C193.319 176.975 193.437 176.857 193.437 176.708V175.677L194.165 176.403C194.215 176.453 194.284 176.478 194.352 176.478C194.421 176.478 194.489 176.453 194.539 176.403C194.645 176.298 194.645 176.13 194.539 176.031L193.811 175.304H194.844C194.993 175.304 195.112 175.186 195.112 175.037C195.105 174.888 194.987 174.77 194.844 174.77Z" fill="#7BE3D8"/>
<path d="M200.491 174.77H199.457L200.186 174.043C200.291 173.937 200.291 173.77 200.186 173.67C200.08 173.565 199.912 173.565 199.812 173.67L199.084 174.397V173.366C199.084 173.217 198.965 173.099 198.816 173.099C198.667 173.099 198.548 173.217 198.548 173.366V174.397L197.82 173.67C197.714 173.565 197.546 173.565 197.446 173.67C197.34 173.776 197.34 173.944 197.446 174.043L198.175 174.77H197.141C196.992 174.77 196.874 174.888 196.874 175.037C196.874 175.186 196.992 175.304 197.141 175.304H198.175L197.446 176.031C197.34 176.136 197.34 176.304 197.446 176.403C197.496 176.453 197.565 176.478 197.633 176.478C197.702 176.478 197.77 176.453 197.82 176.403L198.548 175.677V176.708C198.548 176.857 198.667 176.975 198.816 176.975C198.965 176.975 199.084 176.857 199.084 176.708V175.677L199.812 176.403C199.862 176.453 199.93 176.478 199.999 176.478C200.067 176.478 200.136 176.453 200.186 176.403C200.291 176.298 200.291 176.13 200.186 176.031L199.457 175.304H200.491C200.64 175.304 200.758 175.186 200.758 175.037C200.758 174.888 200.64 174.77 200.491 174.77Z" fill="#7BE3D8"/>
<path d="M206.143 174.77H205.11L205.838 174.043C205.944 173.937 205.944 173.77 205.838 173.67C205.733 173.565 205.565 173.565 205.465 173.67L204.737 174.397V173.366C204.737 173.217 204.618 173.099 204.469 173.099C204.319 173.099 204.201 173.217 204.201 173.366V174.397L203.473 173.67C203.367 173.565 203.199 173.565 203.099 173.67C202.993 173.776 202.993 173.944 203.099 174.043L203.828 174.77H202.794C202.645 174.77 202.526 174.888 202.526 175.037C202.526 175.186 202.645 175.304 202.794 175.304H203.828L203.099 176.031C202.993 176.136 202.993 176.304 203.099 176.403C203.149 176.453 203.217 176.478 203.286 176.478C203.354 176.478 203.423 176.453 203.473 176.403L204.201 175.677V176.708C204.201 176.857 204.319 176.975 204.469 176.975C204.618 176.975 204.737 176.857 204.737 176.708V175.677L205.465 176.403C205.515 176.453 205.583 176.478 205.652 176.478C205.72 176.478 205.789 176.453 205.838 176.403C205.944 176.298 205.944 176.13 205.838 176.031L205.11 175.304H206.143C206.293 175.304 206.411 175.186 206.411 175.037C206.405 174.888 206.287 174.77 206.143 174.77Z" fill="#7BE3D8"/>
<path d="M205.726 158.514C205.471 158.284 205.116 158.135 204.724 158.135H204.039V155.321C204.039 152.712 201.698 150.588 198.822 150.588C195.965 150.588 193.605 152.694 193.605 155.321V158.135H192.92C192.528 158.135 192.173 158.278 191.918 158.514C191.663 158.75 191.501 159.067 191.501 159.427V168.627C191.501 168.981 191.663 169.304 191.918 169.54C192.173 169.776 192.528 169.919 192.92 169.919H204.724C205.116 169.919 205.471 169.776 205.726 169.54C205.982 169.31 206.144 168.987 206.144 168.627V159.427C206.144 159.067 205.982 158.744 205.726 158.514ZM200.273 165.365L200.609 166.782C200.646 166.925 200.596 167.067 200.503 167.173C200.41 167.279 200.267 167.347 200.105 167.347H197.54C197.378 167.347 197.235 167.279 197.141 167.173C197.048 167.067 197.004 166.925 197.035 166.782L197.695 163.98C197.216 163.663 196.905 163.154 196.905 162.576C196.905 161.614 197.764 160.837 198.822 160.837C199.881 160.837 200.74 161.614 200.74 162.576C200.74 163.154 200.428 163.67 199.949 163.98L200.273 165.365ZM201.972 158.135H195.666V155.321C195.666 153.712 197.123 152.464 198.816 152.464C200.54 152.464 201.966 153.731 201.966 155.321V158.135H201.972Z" fill="#7BE3D8"/>
<path opacity="0.9" d="M82.5085 133.146H41.743C41.2138 133.146 40.7282 132.928 40.3796 132.581C40.0309 132.233 39.813 131.754 39.813 131.22V71.7938C39.813 71.2658 40.0309 70.7813 40.3796 70.4334C40.7282 70.0856 41.2076 69.8682 41.743 69.8682H82.5085C83.0377 69.8682 83.5233 70.0856 83.8719 70.4334C84.2206 70.7813 84.4384 71.2596 84.4384 71.7938V131.22C84.4384 131.748 84.2206 132.233 83.8719 132.581C83.5233 132.928 83.0377 133.146 82.5085 133.146Z" fill="white"/>
<path d="M66.6393 120.356C66.4712 120.201 66.2409 120.108 65.9856 120.108H65.5374V118.269C65.5374 116.561 64.0059 115.176 62.1257 115.176C60.2456 115.176 58.7141 116.561 58.7141 118.269C58.7141 118.604 59.0191 118.884 59.3927 118.884C59.7662 118.884 60.0712 118.611 60.0712 118.269C60.0712 117.238 60.9989 116.399 62.1319 116.399C63.2712 116.399 64.1926 117.238 64.1926 118.269V120.108H58.272C58.0168 120.108 57.7864 120.201 57.6184 120.356C57.4503 120.511 57.3444 120.716 57.3444 120.952V126.965C57.3444 127.195 57.4503 127.406 57.6184 127.562C57.7864 127.717 58.0168 127.81 58.272 127.81H65.9918C66.2471 127.81 66.4774 127.717 66.6455 127.562C66.8136 127.406 66.9195 127.201 66.9195 126.965V120.952C66.9132 120.723 66.8074 120.511 66.6393 120.356ZM63.0782 124.835L63.2961 125.76C63.321 125.853 63.2899 125.947 63.2276 126.015C63.1654 126.083 63.072 126.127 62.9662 126.127H61.2915C61.1856 126.127 61.0923 126.083 61.03 126.015C60.9677 125.947 60.9428 125.853 60.9615 125.76L61.3911 123.928C61.0798 123.723 60.8744 123.387 60.8744 123.008C60.8744 122.381 61.4347 121.872 62.1319 121.872C62.823 121.872 63.3895 122.381 63.3895 123.008C63.3895 123.387 63.1841 123.723 62.8728 123.928L63.0782 124.835Z" fill="#7BE3D8"/>
<path d="M76.8867 75.2164H47.3647V76.3655H76.8867V75.2164Z" fill="#C6EEFF"/>
<path d="M74.5895 77.0861H49.662V78.2352H74.5895V77.0861Z" fill="#C6EEFF"/>
<path d="M56.0806 89.8571C56.0806 90.0373 55.9188 90.1863 55.7195 90.1863C55.5203 90.1863 55.3585 90.0373 55.3585 89.8571C55.3585 89.677 55.5203 89.5279 55.7195 89.5279C55.9188 89.5279 56.0806 89.6708 56.0806 89.8571Z" fill="#EEEEEE"/>
<path d="M57.9545 89.8571C57.9545 90.0373 57.7927 90.1863 57.5934 90.1863C57.3942 90.1863 57.2324 90.0373 57.2324 89.8571C57.2324 89.677 57.3942 89.5279 57.5934 89.5279C57.7927 89.5279 57.9545 89.6708 57.9545 89.8571Z" fill="#EEEEEE"/>
<path d="M59.8347 89.8571C59.8347 90.0373 59.6729 90.1863 59.4736 90.1863C59.2744 90.1863 59.1125 90.0373 59.1125 89.8571C59.1125 89.677 59.2744 89.5279 59.4736 89.5279C59.6729 89.5279 59.8347 89.6708 59.8347 89.8571Z" fill="#EEEEEE"/>
<path d="M61.7148 89.8571C61.7148 90.0373 61.553 90.1863 61.3538 90.1863C61.1545 90.1863 60.9927 90.0373 60.9927 89.8571C60.9927 89.677 61.1545 89.5279 61.3538 89.5279C61.553 89.5279 61.7148 89.6708 61.7148 89.8571Z" fill="#EEEEEE"/>
<path d="M63.595 89.8571C63.595 90.0373 63.4331 90.1863 63.2339 90.1863C63.0347 90.1863 62.8728 90.0373 62.8728 89.8571C62.8728 89.677 63.0347 89.5279 63.2339 89.5279C63.4331 89.5279 63.595 89.6708 63.595 89.8571Z" fill="#EEEEEE"/>
<path d="M65.4689 89.8571C65.4689 90.0373 65.307 90.1863 65.1078 90.1863C64.9086 90.1863 64.7467 90.0373 64.7467 89.8571C64.7467 89.677 64.9086 89.5279 65.1078 89.5279C65.307 89.5279 65.4689 89.6708 65.4689 89.8571Z" fill="#EEEEEE"/>
<path d="M67.3491 89.8571C67.3491 90.0373 67.1872 90.1863 66.988 90.1863C66.7888 90.1863 66.6269 90.0373 66.6269 89.8571C66.6269 89.677 66.7888 89.5279 66.988 89.5279C67.1872 89.5279 67.3491 89.6708 67.3491 89.8571Z" fill="#EEEEEE"/>
<path d="M69.2292 89.8571C69.2292 90.0373 69.0673 90.1863 68.8681 90.1863C68.6689 90.1863 68.507 90.0373 68.507 89.8571C68.507 89.677 68.6689 89.5279 68.8681 89.5279C69.0673 89.5279 69.2292 89.6708 69.2292 89.8571Z" fill="#EEEEEE"/>
<path d="M74.0167 84.9065H49.7243C49.6309 84.9065 49.5499 84.8692 49.4939 84.8071C49.4316 84.745 49.3943 84.6642 49.3943 84.5773V81.2727C49.3943 81.1795 49.4316 81.0988 49.4939 81.0429C49.5562 80.9807 49.6371 80.9435 49.7243 80.9435H74.0105C74.1039 80.9435 74.1848 80.9807 74.2408 81.0429C74.3031 81.105 74.3404 81.1857 74.3404 81.2727V84.5773C74.3404 84.6704 74.3031 84.7512 74.2408 84.8071C74.191 84.8754 74.1039 84.9065 74.0167 84.9065Z" fill="#C6EEFF"/>
<path d="M74.0167 91.0684H49.7243C49.6309 91.0684 49.5499 91.0311 49.4939 90.969C49.4316 90.9069 49.3943 90.8261 49.3943 90.7392V87.4346C49.3943 87.3414 49.4316 87.2607 49.4939 87.2048C49.5562 87.1427 49.6371 87.1054 49.7243 87.1054H74.0105C74.1039 87.1054 74.1848 87.1427 74.2408 87.2048C74.3031 87.2669 74.3404 87.3476 74.3404 87.4346V90.7392C74.3404 90.8324 74.3031 90.9131 74.2408 90.969C74.191 91.0373 74.1039 91.0684 74.0167 91.0684Z" fill="#7BE3D8"/>
<path d="M52.3577 83.0554C52.6316 83.0554 53.0674 82.6144 53.0674 82.1361C53.0674 81.664 52.7499 81.3348 52.3452 81.3348C51.953 81.3348 51.6355 81.6578 51.6355 82.1361C51.6417 82.6144 52.0775 83.0554 52.3577 83.0554Z" fill="#6BC4EC"/>
<path d="M53.8145 84.0617C53.7834 83.9251 53.746 83.8195 53.6775 83.7387C53.6153 83.6579 53.5343 83.5896 53.4223 83.5399C53.2791 83.4716 53.111 83.4033 52.9304 83.3598C52.7499 83.3101 52.5569 83.279 52.3515 83.279C52.146 83.279 51.953 83.3101 51.7725 83.3598C51.5919 83.4095 51.4238 83.4716 51.2806 83.5399C51.1748 83.5896 51.0939 83.6517 51.0254 83.7387C50.9631 83.8195 50.9196 83.9251 50.8884 84.0617C50.8822 84.0928 50.8635 84.2543 50.8448 84.5152H53.8518C53.8332 84.2605 53.8207 84.099 53.8145 84.0617Z" fill="#6BC4EC"/>
<path d="M52.3577 87.5091C51.953 87.5091 51.623 87.8384 51.623 88.2421V88.8881C51.623 88.9689 51.6853 89.031 51.7662 89.031C51.8472 89.031 51.9094 88.9689 51.9094 88.8881V88.2421C51.9094 88.1489 51.9406 88.062 51.9841 87.9937C52.0651 87.8756 52.202 87.7949 52.3514 87.7949C52.5071 87.7949 52.6378 87.8756 52.7188 87.9937C52.7686 88.062 52.7935 88.1489 52.7935 88.2421V88.8881C52.7935 88.9689 52.8557 89.031 52.9367 89.031C53.0176 89.031 53.0799 88.9689 53.0799 88.8881V88.2421C53.0923 87.8384 52.7623 87.5091 52.3577 87.5091Z" fill="#EEEEEE"/>
<path d="M53.3289 88.739C53.2915 88.7018 53.2417 88.6831 53.1857 88.6831H51.5234C51.4674 88.6831 51.4176 88.708 51.3802 88.739C51.3429 88.7763 51.3242 88.826 51.3242 88.8819V90.3106C51.3242 90.3665 51.3491 90.4162 51.3802 90.4535C51.4176 90.4907 51.4674 90.5094 51.5234 90.5094H53.1857C53.2417 90.5094 53.2915 90.4845 53.3289 90.4535C53.3662 90.4162 53.3849 90.3665 53.3849 90.3106V88.8819C53.3911 88.826 53.3662 88.7763 53.3289 88.739ZM52.5631 89.8012L52.6129 90.0186C52.6192 90.0435 52.6129 90.0621 52.6005 90.0808C52.588 90.0994 52.5693 90.1056 52.5444 90.1056H52.1834C52.1585 90.1056 52.1398 90.0932 52.1273 90.0808C52.1149 90.0621 52.1086 90.0435 52.1149 90.0186L52.2083 89.5838C52.1398 89.5341 52.0962 89.4534 52.0962 89.3664C52.0962 89.2173 52.2145 89.0993 52.3639 89.0993C52.5133 89.0993 52.6316 89.2173 52.6316 89.3664C52.6316 89.4534 52.588 89.5341 52.5195 89.5838L52.5631 89.8012Z" fill="#EEEEEE"/>
<path d="M57.9359 82.925C57.9359 83.1175 57.7802 83.279 57.581 83.279C57.388 83.279 57.2261 83.1238 57.2261 82.925C57.2261 82.7324 57.3818 82.5709 57.581 82.5709C57.774 82.5771 57.9359 82.7324 57.9359 82.925Z" fill="#EEEEEE"/>
<path d="M59.7724 82.925C59.7724 83.1175 59.6168 83.279 59.4175 83.279C59.2245 83.279 59.0627 83.1238 59.0627 82.925C59.0627 82.7324 59.2183 82.5709 59.4175 82.5709C59.6168 82.5771 59.7724 82.7324 59.7724 82.925Z" fill="#EEEEEE"/>
<path d="M61.6152 82.925C61.6152 83.1175 61.4596 83.279 61.2604 83.279C61.0674 83.279 60.9055 83.1238 60.9055 82.925C60.9055 82.7324 61.0612 82.5709 61.2604 82.5709C61.4596 82.5771 61.6152 82.7324 61.6152 82.925Z" fill="#EEEEEE"/>
<path d="M63.458 82.925C63.458 83.1175 63.3024 83.279 63.1032 83.279C62.9102 83.279 62.7483 83.1238 62.7483 82.925C62.7483 82.7324 62.9039 82.5709 63.1032 82.5709C63.2961 82.5771 63.458 82.7324 63.458 82.925Z" fill="#EEEEEE"/>
<path d="M65.2946 82.925C65.2946 83.1175 65.1389 83.279 64.9397 83.279C64.7467 83.279 64.5848 83.1238 64.5848 82.925C64.5848 82.7324 64.7405 82.5709 64.9397 82.5709C65.1389 82.5771 65.2946 82.7324 65.2946 82.925Z" fill="#EEEEEE"/>
<path d="M67.1373 82.925C67.1373 83.1175 66.9817 83.279 66.7825 83.279C66.5895 83.279 66.4276 83.1238 66.4276 82.925C66.4276 82.7324 66.5833 82.5709 66.7825 82.5709C66.9817 82.5771 67.1373 82.7324 67.1373 82.925Z" fill="#EEEEEE"/>
<path d="M68.9802 82.925C68.9802 83.1175 68.8245 83.279 68.6253 83.279C68.4261 83.279 68.2704 83.1238 68.2704 82.925C68.2704 82.7324 68.4261 82.5709 68.6253 82.5709C68.8245 82.5709 68.9802 82.7324 68.9802 82.925Z" fill="#EEEEEE"/>
<path d="M70.8229 82.925C70.8229 83.1175 70.6673 83.279 70.4681 83.279C70.2751 83.279 70.1132 83.1238 70.1132 82.925C70.1132 82.7324 70.2689 82.5709 70.4681 82.5709C70.6611 82.5771 70.8229 82.7324 70.8229 82.925Z" fill="#EEEEEE"/>
<path d="M57.9359 89.3664C57.9359 89.559 57.7802 89.7205 57.581 89.7205C57.388 89.7205 57.2261 89.5652 57.2261 89.3664C57.2261 89.1676 57.3818 89.0124 57.581 89.0124C57.774 89.0124 57.9359 89.1739 57.9359 89.3664Z" fill="#EEEEEE"/>
<path d="M59.7724 89.3664C59.7724 89.559 59.6168 89.7205 59.4175 89.7205C59.2245 89.7205 59.0627 89.5652 59.0627 89.3664C59.0627 89.1676 59.2183 89.0124 59.4175 89.0124C59.6168 89.0124 59.7724 89.1739 59.7724 89.3664Z" fill="#EEEEEE"/>
<path d="M61.6152 89.3664C61.6152 89.559 61.4596 89.7205 61.2604 89.7205C61.0674 89.7205 60.9055 89.5652 60.9055 89.3664C60.9055 89.1676 61.0612 89.0124 61.2604 89.0124C61.4596 89.0124 61.6152 89.1739 61.6152 89.3664Z" fill="#EEEEEE"/>
<path d="M63.458 89.3664C63.458 89.559 63.3024 89.7205 63.1032 89.7205C62.9102 89.7205 62.7483 89.5652 62.7483 89.3664C62.7483 89.1676 62.9039 89.0124 63.1032 89.0124C63.2961 89.0124 63.458 89.1739 63.458 89.3664Z" fill="#EEEEEE"/>
<path d="M65.2946 89.3664C65.2946 89.559 65.1389 89.7205 64.9397 89.7205C64.7467 89.7205 64.5848 89.5652 64.5848 89.3664C64.5848 89.1676 64.7405 89.0124 64.9397 89.0124C65.1389 89.0124 65.2946 89.1739 65.2946 89.3664Z" fill="#EEEEEE"/>
<path d="M67.1373 89.3664C67.1373 89.559 66.9817 89.7205 66.7825 89.7205C66.5895 89.7205 66.4276 89.5652 66.4276 89.3664C66.4276 89.1676 66.5833 89.0124 66.7825 89.0124C66.9817 89.0124 67.1373 89.1739 67.1373 89.3664Z" fill="#EEEEEE"/>
<path d="M68.9802 89.3664C68.9802 89.559 68.8245 89.7205 68.6253 89.7205C68.4261 89.7205 68.2704 89.5652 68.2704 89.3664C68.2704 89.1676 68.4261 89.0124 68.6253 89.0124C68.8245 89.0124 68.9802 89.1739 68.9802 89.3664Z" fill="#EEEEEE"/>
<path d="M70.8229 89.3664C70.8229 89.559 70.6673 89.7205 70.4681 89.7205C70.2751 89.7205 70.1132 89.5652 70.1132 89.3664C70.1132 89.1676 70.2689 89.0124 70.4681 89.0124C70.6611 89.0124 70.8229 89.1739 70.8229 89.3664Z" fill="#EEEEEE"/>
<path d="M65.8985 100.28C65.8985 98.2801 64.2114 96.6651 62.1258 96.6651C60.0402 96.6651 58.353 98.2863 58.353 100.28C58.353 102.28 60.0402 103.895 62.1258 103.895C64.2114 103.902 65.8985 102.28 65.8985 100.28ZM60.2892 100.28C60.2892 99.3112 61.111 98.5223 62.1258 98.5223C63.1405 98.5223 63.9623 99.3112 63.9623 100.28C63.9623 101.249 63.1405 102.038 62.1258 102.038C61.111 102.038 60.2892 101.255 60.2892 100.28Z" fill="#7BE3D8"/>
<path d="M63.0222 111.884C63.0969 111.834 63.1467 111.753 63.153 111.66L63.1965 109.964H62.2876V109.039H63.2214L63.2463 108.125H62.2938V107.2H63.2713L63.2962 106.287H62.3001V105.361H63.3211L63.3833 102.815C63.3833 102.734 63.3522 102.665 63.3024 102.61C63.2463 102.56 63.1779 102.523 63.0907 102.523H61.1981C61.1172 102.523 61.0425 102.554 60.9864 102.61C60.9304 102.659 60.8993 102.734 60.9055 102.815L61.1234 111.138C61.1234 111.194 61.1421 111.25 61.1794 111.293C61.2106 111.337 61.2604 111.374 61.3164 111.393L62.7794 111.908C62.8541 111.952 62.9475 111.933 63.0222 111.884Z" fill="#7BE3D8"/>
<path opacity="0.9" d="M103.246 171.739H71.1965C70.7794 171.739 70.3996 171.571 70.1257 171.298C69.8517 171.024 69.6837 170.645 69.6837 170.229V123.505C69.6837 123.089 69.8517 122.71 70.1257 122.437C70.3996 122.164 70.7794 121.996 71.1965 121.996H103.246C103.663 121.996 104.043 122.164 104.317 122.437C104.591 122.71 104.759 123.089 104.759 123.505V170.229C104.759 170.645 104.591 171.024 104.317 171.298C104.043 171.571 103.663 171.739 103.246 171.739Z" fill="white"/>
<path d="M81.288 145.908V141.846H77.2164V145.908H81.288Z" fill="#EEEEEE"/>
<path d="M81.2836 151.078V147.016H77.212V151.078H81.2836Z" fill="#EEEEEE"/>
<path d="M81.2853 156.248V152.186H77.2138V156.248H81.2853Z" fill="#EEEEEE"/>
<path d="M81.2872 161.418V157.356H77.2157V161.418H81.2872Z" fill="#EEEEEE"/>
<path d="M96.8326 145.909V141.847H92.7611V145.909H96.8326Z" fill="#EEEEEE"/>
<path d="M96.8282 151.079V147.017H92.7567V151.079H96.8282Z" fill="#EEEEEE"/>
<path d="M96.8301 156.249V152.186H92.7585V156.249H96.8301Z" fill="#EEEEEE"/>
<path d="M96.8319 161.419V157.356H92.7604V161.419H96.8319Z" fill="#EEEEEE"/>
<path d="M91.6511 145.905V141.842H87.5796V145.905H91.6511Z" fill="#EEEEEE"/>
<path d="M91.6467 151.075V147.012H87.5751V151.075H91.6467Z" fill="#EEEEEE"/>
<path d="M91.6485 156.244V152.182H87.5769V156.244H91.6485Z" fill="#EEEEEE"/>
<path d="M91.6504 161.414V157.352H87.5788V161.414H91.6504Z" fill="#EEEEEE"/>
<path d="M86.4695 145.906V141.844H82.398V145.906H86.4695Z" fill="#EEEEEE"/>
<path d="M86.4651 151.076V147.014H82.3936V151.076H86.4651Z" fill="#EEEEEE"/>
<path d="M86.4669 156.246V152.184H82.3954V156.246H86.4669Z" fill="#EEEEEE"/>
<path d="M86.4688 161.416V157.354H82.3972V161.416H86.4688Z" fill="#EEEEEE"/>
<path d="M98.8259 126.195H75.6167V127.096H98.8259V126.195Z" fill="#C6EEFF"/>
<path d="M97.0204 127.661H77.4221V128.562H97.0204V127.661Z" fill="#C6EEFF"/>
<path d="M82.4711 138.569C82.4711 138.711 82.3466 138.823 82.1847 138.823C82.0291 138.823 81.8984 138.705 81.8984 138.569C81.8984 138.426 82.0229 138.314 82.1847 138.314C82.3404 138.308 82.4711 138.426 82.4711 138.569Z" fill="#EEEEEE"/>
<path d="M83.9466 138.569C83.9466 138.711 83.8221 138.823 83.6602 138.823C83.5046 138.823 83.3738 138.705 83.3738 138.569C83.3738 138.426 83.4984 138.314 83.6602 138.314C83.8159 138.308 83.9466 138.426 83.9466 138.569Z" fill="#EEEEEE"/>
<path d="M85.4221 138.569C85.4221 138.711 85.2975 138.823 85.1357 138.823C84.98 138.823 84.8493 138.705 84.8493 138.569C84.8493 138.426 84.9738 138.314 85.1357 138.314C85.2975 138.308 85.4221 138.426 85.4221 138.569Z" fill="#EEEEEE"/>
<path d="M86.8976 138.569C86.8976 138.711 86.7731 138.823 86.6112 138.823C86.4556 138.823 86.3248 138.705 86.3248 138.569C86.3248 138.426 86.4493 138.314 86.6112 138.314C86.7731 138.308 86.8976 138.426 86.8976 138.569Z" fill="#EEEEEE"/>
<path d="M88.373 138.569C88.373 138.711 88.2485 138.823 88.0867 138.823C87.931 138.823 87.8003 138.705 87.8003 138.569C87.8003 138.426 87.9248 138.314 88.0867 138.314C88.2485 138.308 88.373 138.426 88.373 138.569Z" fill="#EEEEEE"/>
<path d="M89.8547 138.569C89.8547 138.711 89.7302 138.823 89.5684 138.823C89.4127 138.823 89.282 138.705 89.282 138.569C89.282 138.426 89.4065 138.314 89.5684 138.314C89.724 138.308 89.8547 138.426 89.8547 138.569Z" fill="#EEEEEE"/>
<path d="M91.3302 138.569C91.3302 138.711 91.2057 138.823 91.0438 138.823C90.8882 138.823 90.7574 138.705 90.7574 138.569C90.7574 138.426 90.882 138.314 91.0438 138.314C91.1995 138.308 91.3302 138.426 91.3302 138.569Z" fill="#EEEEEE"/>
<path d="M92.8057 138.569C92.8057 138.711 92.6812 138.823 92.5193 138.823C92.3637 138.823 92.2329 138.705 92.2329 138.569C92.2329 138.426 92.3574 138.314 92.5193 138.314C92.6812 138.308 92.8057 138.426 92.8057 138.569Z" fill="#EEEEEE"/>
<path d="M96.5722 134.68H77.4781C77.4097 134.68 77.3412 134.649 77.2976 134.606C77.2478 134.556 77.2229 134.494 77.2229 134.425V131.823C77.2229 131.754 77.254 131.686 77.2976 131.643C77.3474 131.593 77.4097 131.568 77.4781 131.568H96.5722C96.6469 131.568 96.7092 131.599 96.7527 131.643C96.8025 131.692 96.8274 131.754 96.8274 131.823V134.425C96.8274 134.5 96.7963 134.562 96.7527 134.606C96.7092 134.649 96.6407 134.68 96.5722 134.68Z" fill="#EEEEEE"/>
<path d="M96.5722 139.525H77.4781C77.4097 139.525 77.3412 139.494 77.2976 139.451C77.2478 139.401 77.2229 139.339 77.2229 139.27V136.668C77.2229 136.599 77.254 136.531 77.2976 136.488C77.3474 136.438 77.4097 136.413 77.4781 136.413H96.5722C96.6469 136.413 96.7092 136.444 96.7527 136.488C96.8025 136.537 96.8274 136.599 96.8274 136.668V139.27C96.8274 139.345 96.7963 139.407 96.7527 139.451C96.7092 139.494 96.6407 139.525 96.5722 139.525Z" fill="#C6EEFF"/>
<path d="M79.545 133.22C79.7567 133.22 80.1054 132.873 80.1054 132.5C80.1054 132.127 79.8563 131.872 79.5326 131.872C79.2275 131.872 78.9785 132.127 78.9785 132.5C78.9785 132.873 79.3209 133.22 79.545 133.22Z" fill="#7BE3D8"/>
<path d="M80.6844 134.015C80.6595 133.91 80.6283 133.823 80.5785 133.761C80.5287 133.692 80.4665 133.649 80.3793 133.605C80.2672 133.55 80.1365 133.5 79.9933 133.463C79.8501 133.425 79.6945 133.4 79.5388 133.4C79.377 133.4 79.2275 133.425 79.0844 133.463C78.9412 133.5 78.8104 133.55 78.6984 133.605C78.6112 133.643 78.5489 133.692 78.4991 133.761C78.4493 133.829 78.4182 133.91 78.3933 134.015C78.3871 134.04 78.3746 134.171 78.356 134.37H80.7217C80.703 134.165 80.6906 134.04 80.6844 134.015Z" fill="#7BE3D8"/>
<path d="M79.5388 136.724C79.2213 136.724 78.9598 136.985 78.9598 137.301V137.811C78.9598 137.873 79.0096 137.923 79.0719 137.923C79.1342 137.923 79.184 137.873 79.184 137.811V137.301C79.184 137.227 79.2089 137.165 79.2462 137.109C79.3085 137.016 79.4143 136.954 79.5388 136.954C79.6633 136.954 79.7629 137.016 79.8314 137.109C79.8688 137.165 79.8937 137.233 79.8937 137.301V137.811C79.8937 137.873 79.9435 137.923 80.0057 137.923C80.068 137.923 80.1178 137.873 80.1178 137.811V137.301C80.1178 136.978 79.8626 136.724 79.5388 136.724Z" fill="#EEEEEE"/>
<path d="M80.3046 137.687C80.2735 137.655 80.2361 137.643 80.1925 137.643H78.8851C78.8416 137.643 78.8042 137.662 78.7731 137.687C78.7419 137.718 78.7295 137.755 78.7295 137.798V138.923C78.7295 138.966 78.7482 139.003 78.7731 139.034C78.8042 139.065 78.8416 139.078 78.8851 139.078H80.1925C80.2361 139.078 80.2735 139.059 80.3046 139.034C80.3357 139.003 80.3482 138.966 80.3482 138.923V137.798C80.3544 137.755 80.3357 137.718 80.3046 137.687ZM79.7007 138.525L79.738 138.699C79.7443 138.718 79.738 138.736 79.7256 138.749C79.7131 138.761 79.7007 138.767 79.682 138.767H79.3956C79.377 138.767 79.3645 138.761 79.3521 138.749C79.3396 138.736 79.3396 138.718 79.3396 138.699L79.4143 138.357C79.3583 138.32 79.3272 138.258 79.3272 138.183C79.3272 138.065 79.4205 137.972 79.5388 137.972C79.6571 137.972 79.7505 138.065 79.7505 138.183C79.7505 138.252 79.7131 138.314 79.6633 138.357L79.7007 138.525Z" fill="#EEEEEE"/>
<path d="M83.9279 133.121C83.9279 133.276 83.8034 133.4 83.6478 133.4C83.4921 133.4 83.3676 133.276 83.3676 133.121C83.3676 132.966 83.4921 132.841 83.6478 132.841C83.8034 132.841 83.9279 132.966 83.9279 133.121Z" fill="#7BE3D8"/>
<path d="M85.3723 133.121C85.3723 133.276 85.2477 133.4 85.0921 133.4C84.9365 133.4 84.812 133.276 84.812 133.121C84.812 132.966 84.9365 132.841 85.0921 132.841C85.2477 132.841 85.3723 132.966 85.3723 133.121Z" fill="#7BE3D8"/>
<path d="M86.8228 133.121C86.8228 133.276 86.6983 133.4 86.5427 133.4C86.387 133.4 86.2625 133.276 86.2625 133.121C86.2625 132.966 86.387 132.841 86.5427 132.841C86.6983 132.841 86.8228 132.966 86.8228 133.121Z" fill="#7BE3D8"/>
<path d="M88.2672 133.121C88.2672 133.276 88.1427 133.4 87.9871 133.4C87.8314 133.4 87.7069 133.276 87.7069 133.121C87.7069 132.966 87.8314 132.841 87.9871 132.841C88.1427 132.841 88.2672 132.966 88.2672 133.121Z" fill="#7BE3D8"/>
<path d="M89.7178 133.121C89.7178 133.276 89.5933 133.4 89.4376 133.4C89.282 133.4 89.1575 133.276 89.1575 133.121C89.1575 132.966 89.282 132.841 89.4376 132.841C89.5933 132.841 89.7178 132.966 89.7178 133.121Z" fill="#7BE3D8"/>
<path d="M91.1621 133.121C91.1621 133.276 91.0376 133.4 90.882 133.4C90.7263 133.4 90.6018 133.276 90.6018 133.121C90.6018 132.966 90.7263 132.841 90.882 132.841C91.0376 132.841 91.1621 132.966 91.1621 133.121Z" fill="#7BE3D8"/>
<path d="M92.6127 133.121C92.6127 133.276 92.4882 133.4 92.3325 133.4C92.1769 133.4 92.0524 133.276 92.0524 133.121C92.0524 132.966 92.1769 132.841 92.3325 132.841C92.4882 132.841 92.6127 132.966 92.6127 133.121Z" fill="#7BE3D8"/>
<path d="M94.057 133.121C94.057 133.276 93.9325 133.4 93.7769 133.4C93.6212 133.4 93.4967 133.276 93.4967 133.121C93.4967 132.966 93.6212 132.841 93.7769 132.841C93.9325 132.841 94.057 132.966 94.057 133.121Z" fill="#7BE3D8"/>
<path d="M83.9279 138.183C83.9279 138.339 83.8034 138.463 83.6478 138.463C83.4921 138.463 83.3676 138.339 83.3676 138.183C83.3676 138.028 83.4921 137.904 83.6478 137.904C83.8034 137.904 83.9279 138.028 83.9279 138.183Z" fill="#EEEEEE"/>
<path d="M85.3723 138.183C85.3723 138.339 85.2477 138.463 85.0921 138.463C84.9365 138.463 84.812 138.339 84.812 138.183C84.812 138.028 84.9365 137.904 85.0921 137.904C85.2477 137.904 85.3723 138.028 85.3723 138.183Z" fill="#EEEEEE"/>
<path d="M86.8228 138.183C86.8228 138.339 86.6983 138.463 86.5427 138.463C86.387 138.463 86.2625 138.339 86.2625 138.183C86.2625 138.028 86.387 137.904 86.5427 137.904C86.6983 137.904 86.8228 138.028 86.8228 138.183Z" fill="#EEEEEE"/>
<path d="M88.2672 138.183C88.2672 138.339 88.1427 138.463 87.9871 138.463C87.8314 138.463 87.7069 138.339 87.7069 138.183C87.7069 138.028 87.8314 137.904 87.9871 137.904C88.1427 137.904 88.2672 138.028 88.2672 138.183Z" fill="#EEEEEE"/>
<path d="M89.7178 138.183C89.7178 138.339 89.5933 138.463 89.4376 138.463C89.282 138.463 89.1575 138.339 89.1575 138.183C89.1575 138.028 89.282 137.904 89.4376 137.904C89.5933 137.904 89.7178 138.028 89.7178 138.183Z" fill="#EEEEEE"/>
<path d="M91.1621 138.183C91.1621 138.339 91.0376 138.463 90.882 138.463C90.7263 138.463 90.6018 138.339 90.6018 138.183C90.6018 138.028 90.7263 137.904 90.882 137.904C91.0376 137.904 91.1621 138.028 91.1621 138.183Z" fill="#EEEEEE"/>
<path d="M92.6127 138.183C92.6127 138.339 92.4882 138.463 92.3325 138.463C92.1769 138.463 92.0524 138.339 92.0524 138.183C92.0524 138.028 92.1769 137.904 92.3325 137.904C92.4882 137.904 92.6127 138.028 92.6127 138.183Z" fill="#EEEEEE"/>
<path d="M94.057 138.183C94.057 138.339 93.9325 138.463 93.7769 138.463C93.6212 138.463 93.4967 138.339 93.4967 138.183C93.4967 138.028 93.6212 137.904 93.7769 137.904C93.9325 137.904 94.057 138.028 94.057 138.183Z" fill="#EEEEEE"/>
<path d="M98.8259 164.365H75.6167V165.266H98.8259V164.365Z" fill="#E5F3FF"/>
<path d="M97.0204 165.831H77.4221V166.732H97.0204V165.831Z" fill="#E5F3FF"/>
<path d="M87.0345 159.508H87.0221C85.3412 159.508 83.8159 158.421 82.8322 156.526C82.3093 155.52 81.9544 154.303 81.7988 152.998C81.7863 152.868 81.8735 152.75 82.0042 152.737C82.135 152.725 82.2532 152.812 82.2657 152.942C82.4151 154.191 82.7513 155.359 83.2493 156.315C84.1458 158.048 85.5217 159.042 87.0221 159.042H87.0345C87.1653 159.042 87.2711 159.148 87.2711 159.278C87.2711 159.409 87.1653 159.508 87.0345 159.508ZM88.4602 159.21C88.3668 159.21 88.2797 159.154 88.2423 159.067C88.1925 158.949 88.2485 158.812 88.3668 158.756C89.338 158.346 90.1785 157.495 90.7948 156.303C91.4796 154.98 91.8594 153.271 91.8594 151.501V151.495C91.8594 151.364 91.9652 151.259 92.096 151.259C92.2267 151.259 92.3326 151.364 92.3326 151.495V151.501C92.3326 153.346 91.9341 155.129 91.2119 156.52C90.5458 157.812 89.6244 158.731 88.5474 159.191C88.5225 159.204 88.4913 159.21 88.4602 159.21ZM81.9482 151.743C81.8174 151.743 81.7116 151.638 81.7116 151.507C81.7116 149.663 82.1101 147.88 82.8322 146.488C83.5046 145.196 84.426 144.271 85.503 143.817C85.6213 143.768 85.7583 143.824 85.8143 143.942C85.8641 144.06 85.8081 144.196 85.6898 144.252C84.7124 144.662 83.8719 145.513 83.2556 146.706C82.5707 148.029 82.191 149.737 82.191 151.507C82.1848 151.638 82.0789 151.743 81.9482 151.743ZM92.0088 150.277C91.8905 150.277 91.7909 150.19 91.7722 150.072C91.6228 148.824 91.2866 147.662 90.7886 146.706C89.8921 144.973 88.5162 143.979 87.0159 143.979C86.8851 143.979 86.7793 143.873 86.7793 143.743C86.7793 143.612 86.8789 143.507 87.0096 143.507C88.6905 143.507 90.2221 144.594 91.2057 146.488C91.7287 147.488 92.0835 148.712 92.2392 150.017C92.2516 150.147 92.1645 150.265 92.0337 150.277C92.0275 150.277 92.0213 150.277 92.0088 150.277Z" fill="#6197FF"/>
<path d="M87.0283 158.036H87.0221C85.8081 158.036 84.6812 157.21 83.9342 155.775C83.3303 154.607 82.9941 153.091 82.9941 151.507C82.9941 151.116 83.0128 150.718 83.0563 150.333C83.0688 150.203 83.1871 150.11 83.3178 150.122C83.4486 150.135 83.5419 150.253 83.5295 150.383C83.4921 150.75 83.4735 151.128 83.4735 151.507C83.4735 153.017 83.791 154.458 84.3575 155.564C85.0174 156.837 85.9886 157.57 87.0221 157.57H87.0283C87.159 157.57 87.2649 157.675 87.2649 157.806C87.2649 157.93 87.159 158.036 87.0283 158.036ZM88.4789 157.582C88.4042 157.582 88.3295 157.545 88.2796 157.477C88.2049 157.371 88.2361 157.222 88.3481 157.154C88.8649 156.812 89.3318 156.259 89.6929 155.564C90.2656 154.464 90.5769 153.023 90.5769 151.507C90.5769 150.607 90.4649 149.706 90.247 148.905C90.2158 148.78 90.2905 148.65 90.415 148.619C90.5396 148.588 90.6703 148.656 90.7014 148.787C90.9318 149.644 91.0501 150.557 91.0501 151.514C91.0501 153.098 90.7139 154.613 90.11 155.781C89.7115 156.545 89.1948 157.16 88.6096 157.545C88.566 157.57 88.5224 157.582 88.4789 157.582ZM83.5731 149.085C83.5544 149.085 83.5295 149.085 83.5108 149.079C83.3863 149.048 83.3116 148.917 83.3427 148.793C83.4921 148.228 83.6976 147.706 83.9342 147.24C84.6812 145.805 85.8018 144.979 87.0221 144.979C88.2423 144.979 89.3629 145.805 90.11 147.24C90.1224 147.265 90.1349 147.283 90.1411 147.308C90.1971 147.426 90.1536 147.563 90.0353 147.625C89.917 147.681 89.78 147.638 89.7178 147.519C89.7053 147.501 89.6991 147.476 89.6866 147.457C89.0267 146.184 88.0555 145.451 87.0221 145.451C85.9886 145.451 85.0174 146.184 84.3575 147.457C84.1334 147.892 83.9466 148.383 83.8034 148.917C83.7723 149.016 83.6789 149.085 83.5731 149.085Z" fill="#6197FF"/>
<path d="M87.0221 156.185C86.1381 156.185 85.3163 155.588 84.7809 154.551C84.3513 153.719 84.1085 152.638 84.1085 151.507C84.1085 150.377 84.3451 149.296 84.7809 148.464C84.9614 148.116 85.1731 147.818 85.4097 147.569C85.5031 147.476 85.6462 147.476 85.7459 147.563C85.8392 147.656 85.8392 147.805 85.7521 147.892C85.5466 148.103 85.3599 148.37 85.2042 148.675C84.8058 149.445 84.5879 150.451 84.5879 151.507C84.5879 152.563 84.8058 153.57 85.2042 154.34C85.6587 155.216 86.3248 155.719 87.0283 155.719C87.1591 155.719 87.2649 155.824 87.2649 155.955C87.2649 156.079 87.1529 156.185 87.0221 156.185ZM88.4665 155.514C88.4104 155.514 88.3482 155.489 88.3046 155.446C88.2112 155.352 88.2112 155.209 88.2984 155.11C88.5038 154.899 88.6906 154.638 88.8462 154.327C89.2447 153.557 89.4626 152.551 89.4626 151.495C89.4626 150.439 89.2447 149.433 88.8462 148.662C88.3918 147.787 87.7256 147.283 87.0221 147.283C86.8914 147.283 86.7855 147.178 86.7855 147.047C86.7855 146.917 86.8914 146.811 87.0221 146.811V147.047V146.811C87.9124 146.811 88.7279 147.408 89.2633 148.445C89.6929 149.277 89.9357 150.358 89.9357 151.489C89.9357 152.619 89.6991 153.7 89.2633 154.532C89.0828 154.88 88.8711 155.178 88.6345 155.421C88.5847 155.489 88.5225 155.514 88.4665 155.514Z" fill="#6197FF"/>
<path d="M87.0221 154.203C86.4929 154.203 86.0011 153.855 85.6898 153.24C85.4408 152.762 85.3038 152.147 85.3038 151.507C85.3038 150.868 85.4408 150.246 85.6898 149.774C86.0073 149.166 86.4929 148.812 87.0221 148.812C87.5513 148.812 88.0369 149.159 88.3544 149.774C88.6034 150.253 88.7342 150.868 88.7342 151.507C88.7342 152.004 88.6532 152.495 88.4976 152.911C88.454 153.035 88.317 153.098 88.1925 153.048C88.068 153.004 88.0058 152.868 88.0556 152.743C88.1925 152.377 88.261 151.948 88.261 151.501C88.261 150.93 88.1427 150.395 87.9311 149.986C87.7007 149.538 87.3645 149.277 87.0159 149.277C86.6672 149.277 86.3373 149.532 86.1007 149.986C85.889 150.395 85.7708 150.936 85.7708 151.501C85.7708 152.066 85.889 152.607 86.1007 153.017C86.3311 153.464 86.6672 153.725 87.0159 153.725H87.0221C87.1528 153.725 87.2525 153.83 87.2525 153.961C87.2649 154.098 87.1528 154.203 87.0221 154.203Z" fill="#6197FF"/>
<path d="M87.0221 152.346C86.8727 152.346 86.7295 152.24 86.6361 152.06C86.5552 151.911 86.5116 151.712 86.5116 151.507C86.5116 151.302 86.5552 151.104 86.6361 150.955C86.7295 150.774 86.8727 150.669 87.0221 150.669C87.1715 150.669 87.3147 150.774 87.4081 150.955C87.489 151.104 87.5326 151.302 87.5326 151.507C87.5326 151.712 87.489 151.911 87.4081 152.06C87.3147 152.24 87.1715 152.346 87.0221 152.346Z" fill="#6197FF"/>
<path d="M126.194 26.213C125.895 25.9148 125.478 25.7285 125.017 25.7285H106.116C105.662 25.7285 105.245 25.9148 104.939 26.213C104.641 26.5111 104.454 26.9273 104.454 27.387V36.0273C104.454 36.4808 104.641 36.897 104.939 37.2013C105.238 37.4995 105.655 37.6858 106.116 37.6858H121.512C121.861 37.6858 122.209 37.7542 122.527 37.8846C122.832 38.0088 123.118 38.1952 123.367 38.425L126.063 41.0028C126.175 41.1146 126.331 41.1333 126.462 41.0836C126.586 41.0339 126.686 40.9097 126.686 40.7482V27.387C126.686 26.9335 126.493 26.5174 126.194 26.213ZM126.293 36.0832C126.293 36.4373 126.15 36.7541 125.92 36.9839C125.69 37.2138 125.372 37.3566 125.017 37.3566H106.116C105.761 37.3566 105.444 37.2138 105.213 36.9839C104.983 36.7541 104.84 36.4373 104.84 36.0832V27.4429C104.84 27.0888 104.983 26.772 105.213 26.5422C105.444 26.3124 105.761 26.1695 106.116 26.1695H125.017C125.372 26.1695 125.69 26.3124 125.92 26.5422C126.15 26.772 126.293 27.0888 126.293 27.4429V36.0832Z" fill="#93DDFE"/>
<path opacity="0.8" d="M125.017 37.3566C125.372 37.3566 125.69 37.2138 125.92 36.9839C126.15 36.7541 126.293 36.4373 126.293 36.0832V27.4429C126.293 27.0888 126.15 26.772 125.92 26.5422C125.69 26.3124 125.372 26.1695 125.017 26.1695H106.116C105.761 26.1695 105.444 26.3124 105.213 26.5422C104.983 26.772 104.84 27.0888 104.84 27.4429V36.0832C104.84 36.4373 104.983 36.7541 105.213 36.9839C105.444 37.2138 105.761 37.3566 106.116 37.3566H125.017Z" fill="#EEEEEE"/>
<path d="M112.199 32.0596H124.874V31.4695H112.199V32.0596Z" fill="#9CE1FF"/>
<path d="M111.683 30.7592H124.875V30.1691H111.683V30.7592Z" fill="#9CE1FF"/>
<path d="M108.955 29.4651L124.874 29.4651V28.875L108.955 28.875V29.4651Z" fill="#9CE1FF"/>
<path d="M108.955 28.1708L124.874 28.1708V27.5807L108.955 27.5807V28.1708Z" fill="#9CE1FF"/>
<path d="M106.263 35.2649H114.674V34.6748H106.263V35.2649Z" fill="#C6EEFF"/>
<path d="M106.265 33.9645H117.807V33.3744H106.265V33.9645Z" fill="#C6EEFF"/>
<defs>
<linearGradient id="paint0_linear_2_694" x1="209.644" y1="55.5812" x2="142.018" y2="123.732" gradientUnits="userSpaceOnUse">
<stop stop-color="#71A6E9"/>
<stop offset="0.5" stop-color="#CCE1FF"/>
</linearGradient>
<linearGradient id="paint1_linear_2_694" x1="4.23132" y1="70.3756" x2="112.222" y2="138.842" gradientUnits="userSpaceOnUse">
<stop stop-color="#78ACF5"/>
<stop offset="1" stop-color="#CCE1FF"/>
</linearGradient>
<linearGradient id="paint2_linear_2_694" x1="4.2549" y1="70.3737" x2="112.235" y2="138.833" gradientUnits="userSpaceOnUse">
<stop stop-color="#78ACF5"/>
<stop offset="1" stop-color="#CCE1FF"/>
</linearGradient>
<linearGradient id="paint3_linear_2_694" x1="4.38769" y1="70.2288" x2="112.338" y2="138.67" gradientUnits="userSpaceOnUse">
<stop stop-color="#78ACF5"/>
<stop offset="1" stop-color="#CCE1FF"/>
</linearGradient>
<linearGradient id="paint4_linear_2_694" x1="-0.840977" y1="78.1083" x2="107.379" y2="146.72" gradientUnits="userSpaceOnUse">
<stop stop-color="#78ACF5"/>
<stop offset="1" stop-color="#CCE1FF"/>
</linearGradient>
<linearGradient id="paint5_linear_2_694" x1="-1.36744" y1="78.9517" x2="106.82" y2="147.543" gradientUnits="userSpaceOnUse">
<stop stop-color="#78ACF5"/>
<stop offset="1" stop-color="#CCE1FF"/>
</linearGradient>
<linearGradient id="paint6_linear_2_694" x1="67.65" y1="106.168" x2="174.048" y2="106.168" gradientUnits="userSpaceOnUse">
<stop stop-color="#71A6E9"/>
<stop offset="1" stop-color="#CCE1FF"/>
</linearGradient>
</defs>
</svg>
