<svg width="64" height="63" viewBox="0 0 64 63" fill="none" xmlns="http://www.w3.org/2000/svg">
<path d="M26.037 29.6506C25.5466 29.1602 24.8815 28.8847 24.188 28.8847C23.4945 28.8847 22.8294 29.1602 22.339 29.6506C21.8487 30.141 21.5732 30.8061 21.5732 31.4996C21.5732 32.1931 21.8487 32.8581 22.339 33.3485L30.1515 41.161C30.3949 41.4024 30.6835 41.5933 31.0007 41.7229C31.318 41.8525 31.6578 41.9182 32.0005 41.9162C32.357 41.9049 32.7074 41.8205 33.0299 41.6682C33.3525 41.5159 33.6403 41.2989 33.8755 41.0308L52.1047 20.1975C52.5256 19.6749 52.7285 19.01 52.6712 18.3414C52.6139 17.6729 52.3007 17.0523 51.7969 16.609C51.2932 16.1657 50.6378 15.9339 49.9674 15.9621C49.2969 15.9902 48.6632 16.276 48.1984 16.76L32.0005 35.51L26.037 29.6506Z" fill="#59B64C"/>
<path d="M55.4379 28.8958C54.7472 28.8958 54.0848 29.1702 53.5965 29.6586C53.1081 30.1469 52.8337 30.8093 52.8337 31.5C52.8337 37.0253 50.6388 42.3244 46.7318 46.2314C42.8248 50.1384 37.5257 52.3333 32.0004 52.3333C27.886 52.3314 23.8644 51.1114 20.4425 48.8269C17.0206 46.5425 14.3518 43.296 12.7725 39.4968C11.1932 35.6976 10.7742 31.5159 11.5683 27.4789C12.3625 23.4419 14.3341 19.7304 17.2348 16.8125C19.1637 14.8578 21.4631 13.3074 23.9985 12.2521C26.5338 11.1968 29.2542 10.6578 32.0004 10.6667C33.6656 10.6771 35.3247 10.8692 36.9483 11.2396C37.2881 11.3447 37.6457 11.3791 37.9993 11.3406C38.3529 11.3022 38.6948 11.1917 39.004 11.0161C39.3133 10.8404 39.5832 10.6033 39.7973 10.3193C40.0114 10.0353 40.165 9.71051 40.2488 9.36487C40.3325 9.01923 40.3446 8.66011 40.2842 8.30963C40.2238 7.95915 40.0923 7.62476 39.8978 7.32706C39.7032 7.02935 39.4497 6.77466 39.153 6.57867C38.8562 6.38268 38.5224 6.24955 38.1723 6.18749C36.1492 5.71156 34.0786 5.46694 32.0004 5.45833C26.8554 5.48506 21.8337 7.0352 17.5689 9.91315C13.304 12.7911 9.98729 16.8679 8.03716 21.629C6.08702 26.3901 5.59091 31.6222 6.61142 36.665C7.63193 41.7078 10.1233 46.3353 13.7712 49.9635C18.6064 54.8009 25.1609 57.5257 32.0004 57.5417C38.9071 57.5417 45.5309 54.798 50.4146 49.9142C55.2984 45.0305 58.0421 38.4067 58.0421 31.5C58.0421 30.8093 57.7677 30.1469 57.2793 29.6586C56.7909 29.1702 56.1286 28.8958 55.4379 28.8958Z" fill="#59B64C"/>
</svg>
