<svg width="32" height="32" viewBox="0 0 32 32" fill="none" xmlns="http://www.w3.org/2000/svg">
<rect width="32" height="32" rx="16" fill="white" fill-opacity="0.6"/>
<path d="M20.8438 20.875C20.6562 21.0625 20.3125 21.0625 20.125 20.875L16 16.7188L11.8438 20.875C11.6562 21.0625 11.3125 21.0625 11.125 20.875C10.9375 20.6875 10.9375 20.3438 11.125 20.1562L15.2812 16L11.125 11.875C10.9375 11.6875 10.9375 11.3438 11.125 11.1562C11.3125 10.9688 11.6562 10.9688 11.8438 11.1562L16 15.3125L20.125 11.1562C20.3125 10.9688 20.6562 10.9688 20.8438 11.1562C21.0312 11.3438 21.0312 11.6875 20.8438 11.875L16.6875 16L20.8438 20.1562C21.0312 20.3438 21.0312 20.6875 20.8438 20.875Z" fill="#2B2C3A" fill-opacity="0.6"/>
</svg>
