<svg width="23" height="30" viewBox="0 0 23 30" fill="none" xmlns="http://www.w3.org/2000/svg">
<path d="M11.4724 13.2075C11.5794 13.8627 14.9775 15.2503 13.3441 17.0322C11.7107 18.8141 0.24999 10.4352 0.25 17.4309C0.250008 23.4471 12.7501 16.5273 11.6037 22.5662" stroke="#EAEAEB" stroke-width="0.5"/>
<circle cx="11.5278" cy="25.7498" r="3.50023" fill="#F4F4F9"/>
<circle cx="11.5278" cy="25.7499" r="2.61761" fill="#6197FF"/>
<path d="M21.4305 3.8996C21.4305 5.18165 21.1744 6.45116 20.6767 7.63562C20.179 8.82009 19.4496 9.89632 18.53 10.8029C17.6105 11.7094 16.5188 12.4285 15.3173 12.9192C14.1158 13.4098 12.8281 13.6623 11.5276 13.6623C10.2272 13.6623 8.93944 13.4098 7.73797 12.9192C6.5365 12.4285 5.44481 11.7094 4.52524 10.8029C3.60567 9.89632 2.87623 8.82009 2.37857 7.63562C1.8809 6.45116 1.62476 5.18165 1.62476 3.8996L2.52369 3.8996C2.52369 5.06527 2.75658 6.21954 3.20907 7.29648C3.66156 8.37343 4.32479 9.35197 5.16088 10.1762C5.99698 11.0005 6.98957 11.6543 8.08197 12.1004C9.17438 12.5465 10.3452 12.7761 11.5276 12.7761C12.7101 12.7761 13.8809 12.5465 14.9733 12.1004C16.0657 11.6543 17.0583 11.0005 17.8944 10.1762C18.7305 9.35197 19.3937 8.37343 19.8462 7.29648C20.2987 6.21954 20.5316 5.06528 20.5316 3.8996H21.4305Z" fill="#EAEAEB"/>
<circle cx="2.27181" cy="2.61361" r="1.86361" fill="#6197FF"/>
<ellipse cx="3.81389" cy="2.61361" rx="1.54241" ry="0.771205" fill="#6197FF"/>
<circle r="1.86361" transform="matrix(-1 0 0 1 20.9733 2.61361)" fill="#6197FF"/>
<ellipse rx="1.54241" ry="0.771205" transform="matrix(-1 0 0 1 19.4305 2.61361)" fill="#6197FF"/>
</svg>
