<svg width="29" height="30" viewBox="0 0 29 30" fill="none" xmlns="http://www.w3.org/2000/svg">
<path d="M19.1407 11.5647C19.2684 11.2555 19.7063 11.2555 19.834 11.5647L20.8986 14.1439C20.99 14.3653 21.2628 14.4455 21.4595 14.3086L23.7494 12.7144C24.024 12.5233 24.3924 12.7601 24.3326 13.0892L23.8338 15.8345C23.791 16.0702 23.9772 16.2851 24.2166 16.2763L27.0049 16.1732C27.3393 16.1609 27.5212 16.5593 27.2929 16.8039L25.3891 18.8436C25.2256 19.0188 25.2661 19.3003 25.4723 19.4223L27.8737 20.8431C28.1616 21.0134 28.0993 21.4469 27.775 21.5293L25.0706 22.216C24.8384 22.2749 24.7203 22.5336 24.8278 22.7477L26.0798 25.2412C26.2299 25.5402 25.9431 25.8712 25.6258 25.7652L22.9795 24.8807C22.7523 24.8048 22.5131 24.9585 22.4877 25.1968L22.1929 27.9714C22.1576 28.304 21.7373 28.4274 21.5277 28.1667L19.7796 25.992C19.6295 25.8052 19.3452 25.8052 19.1951 25.992L17.447 28.1667C17.2374 28.4274 16.8172 28.304 16.7818 27.9714L16.487 25.1968C16.4617 24.9585 16.2224 24.8048 15.9952 24.8807L13.3489 25.7652C13.0316 25.8712 12.7448 25.5402 12.8949 25.2412L14.1469 22.7477C14.2544 22.5336 14.1363 22.2749 13.9041 22.216L11.1997 21.5293C10.8754 21.4469 10.8131 21.0134 11.101 20.8431L13.5024 19.4223C13.7086 19.3003 13.7491 19.0188 13.5856 18.8436L11.6818 16.8039C11.4535 16.5593 11.6355 16.1609 11.9698 16.1732L14.7581 16.2763C14.9975 16.2851 15.1837 16.0702 15.1409 15.8345L14.6421 13.0892C14.5823 12.7601 14.9507 12.5233 15.2253 12.7144L17.5153 14.3086C17.7119 14.4455 17.9847 14.3653 18.0761 14.1439L19.1407 11.5647Z" fill="#6197FF"/>
<g filter="url(#filter0_b_0_481)">
<path d="M13.4409 1.58977C13.5685 1.28054 14.0065 1.28054 14.1341 1.58977L15.9322 5.94588C16.0236 6.16736 16.2964 6.24746 16.4931 6.11057L20.3608 3.41809C20.6354 3.22695 21.0038 3.46375 20.944 3.79289L20.1016 8.4296C20.0587 8.66534 20.2449 8.88023 20.4844 8.87138L25.1938 8.69737C25.5281 8.68501 25.71 9.08342 25.4818 9.32798L22.2662 12.7732C22.1028 12.9483 22.1432 13.2298 22.3494 13.3518L26.4053 15.7515C26.6932 15.9218 26.6309 16.3553 26.3067 16.4377L21.739 17.5975C21.5068 17.6565 21.3886 17.9151 21.4962 18.1292L23.6108 22.3408C23.7609 22.6397 23.4741 22.9707 23.1568 22.8647L18.6872 21.371C18.4599 21.295 18.2207 21.4487 18.1954 21.687L17.6975 26.3732C17.6621 26.7059 17.2419 26.8293 17.0323 26.5685L14.0798 22.8955C13.9297 22.7087 13.6453 22.7087 13.4952 22.8955L10.5427 26.5685C10.3331 26.8293 9.9129 26.7059 9.87755 26.3732L9.37957 21.687C9.35425 21.4487 9.11505 21.295 8.88781 21.371L4.41819 22.8647C4.10091 22.9707 3.81409 22.6397 3.9642 22.3408L6.07885 18.1292C6.18636 17.9151 6.06824 17.6565 5.83601 17.5975L1.26835 16.4377C0.9441 16.3553 0.88177 15.9218 1.16969 15.7515L5.22557 13.3518C5.43178 13.2298 5.47224 12.9483 5.30876 12.7732L2.09324 9.32798C1.86498 9.08342 2.04693 8.68501 2.38124 8.69737L7.09064 8.87138C7.33007 8.88023 7.51628 8.66534 7.47345 8.4296L6.63098 3.79289C6.57118 3.46375 6.93964 3.22696 7.21419 3.41809L11.0819 6.11057C11.2786 6.24747 11.5514 6.16736 11.6428 5.94588L13.4409 1.58977Z" fill="#6197FF" fill-opacity="0.36"/>
<path d="M12.105 6.13665L13.7875 2.06047L15.47 6.13666C15.6833 6.65343 16.3199 6.84034 16.7787 6.52093L20.3979 4.00146L19.6096 8.34022C19.5097 8.89027 19.9441 9.39168 20.5028 9.37104L24.9096 9.20821L21.9007 12.432C21.5193 12.8407 21.6137 13.4974 22.0948 13.7821L25.8901 16.0276L21.6159 17.1129C21.0741 17.2505 20.7985 17.854 21.0493 18.3536L23.0281 22.2945L18.8457 20.8967C18.3154 20.7195 17.7573 21.0782 17.6982 21.6342L17.2323 26.0193L14.4695 22.5822C14.1192 22.1465 13.4558 22.1465 13.1055 22.5822L10.3427 26.0193L9.87677 21.6342C9.8177 21.0782 9.25955 20.7195 8.72932 20.8967L4.54692 22.2945L6.52568 18.3536C6.77655 17.854 6.50093 17.2505 5.95907 17.1129L1.68492 16.0276L5.48017 13.7821C5.96133 13.4974 6.05574 12.8407 5.67429 12.432L2.6654 9.20821L7.07218 9.37104C7.63086 9.39168 8.06533 8.89027 7.96539 8.34021L7.17707 4.00147L10.7963 6.52093C11.2551 6.84034 11.8917 6.65342 12.105 6.13665ZM2.45877 8.98682C2.45885 8.98691 2.45893 8.98699 2.45902 8.98708L2.45877 8.98682Z" stroke="url(#paint0_linear_0_481)" stroke-opacity="0.26"/>
</g>
<defs>
<filter id="filter0_b_0_481" x="-4.0145" y="-3.64215" width="35.604" height="35.3512" filterUnits="userSpaceOnUse" color-interpolation-filters="sRGB">
<feFlood flood-opacity="0" result="BackgroundImageFix"/>
<feGaussianBlur in="BackgroundImage" stdDeviation="2.5"/>
<feComposite in2="SourceAlpha" operator="in" result="effect1_backgroundBlur_0_481"/>
<feBlend mode="normal" in="SourceGraphic" in2="effect1_backgroundBlur_0_481" result="shape"/>
</filter>
<linearGradient id="paint0_linear_0_481" x1="-3.13437" y1="-0.216964" x2="9.7299" y2="36.5139" gradientUnits="userSpaceOnUse">
<stop stop-color="#EFF6FC"/>
<stop offset="1" stop-color="white"/>
</linearGradient>
</defs>
</svg>
