<svg width="23" height="30" viewBox="0 0 23 30" fill="none" xmlns="http://www.w3.org/2000/svg">
<path d="M5.20456 26.9144C5.20589 27.1185 5.18686 27.3222 5.14768 27.5231C5.09606 28.0096 4.84482 28.4595 4.4455 28.7804C4.04619 29.1012 3.52909 29.2687 3.00033 29.2485C1.77733 29.2485 0.791351 28.5128 0.791351 26.9144C0.846219 26.26 1.03439 25.6211 1.34596 25.0313C1.80699 24.0894 2.34582 23.1817 2.95767 22.3163C2.95767 22.3163 5.20456 25.316 5.20456 26.9144Z" fill="#EC5186"/>
<path d="M5.20465 26.9143C5.20598 27.1184 5.18694 27.3221 5.14776 27.523C4.95238 27.7921 4.68543 28.0104 4.3725 28.1569C4.05957 28.3033 3.71116 28.3731 3.36067 28.3594C2.13768 28.3594 1.1517 27.6193 1.1517 26.0253C1.16245 25.6869 1.22795 25.3518 1.34605 25.0312C1.80708 24.0893 2.34591 23.1816 2.95775 22.3162C2.95775 22.3162 5.20465 25.3159 5.20465 26.9143Z" fill="#FF6197"/>
<path opacity="0.37" d="M4.88147 26.7479C4.88147 27.2296 4.58758 27.6237 4.22257 27.6237C3.85757 27.6237 3.55893 27.234 3.55893 26.7479C3.55893 26.2618 3.85283 25.8721 4.22257 25.8721C4.59232 25.8721 4.88147 26.2662 4.88147 26.7479Z" fill="white"/>
<path d="M3.18018 18.397C3.13751 18.721 3.22758 19.0539 2.93368 19.356L2.13257 20.4202L2.97634 21.1602L3.87225 21.8478L4.9246 20.9719C5.21376 20.6698 5.57876 20.7092 5.9248 20.6347C6.73065 20.4596 7.30423 19.8421 7.85884 19.2641L15.23 11.6224L13.514 10.2123L11.798 8.80225L4.43161 16.4395C3.87226 17.0438 3.27498 17.6394 3.18018 18.397Z" fill="#E1EBFF"/>
<path d="M3.32718 20.7967L2.82471 20.3588L3.35088 19.6581C3.59332 19.3752 3.71478 19.0199 3.69218 18.6597C3.68734 18.5926 3.68734 18.5253 3.69218 18.4582C3.76803 17.8758 4.2468 17.3766 4.75875 16.8467L11.8597 9.5116L14.5048 11.7012L7.43227 19.0363C6.92032 19.5661 6.43681 20.0654 5.82531 20.2011H5.78739L5.60726 20.2274C5.52758 20.2348 5.44844 20.2465 5.37024 20.2624C5.06547 20.3104 4.7859 20.4487 4.57388 20.6566L3.88179 21.2171L3.32718 20.7967Z" fill="#BCD3FF"/>
<path d="M10.4375 9.48081L18.2779 1.35307C18.5235 1.09829 18.8423 0.913218 19.1973 0.819405C19.5523 0.725591 19.9289 0.726908 20.2831 0.8232C20.5576 0.899198 20.8102 1.03086 21.0226 1.20857L22.3451 2.2946C22.4162 2.35296 22.4827 2.41589 22.5442 2.48291C22.8106 2.77544 22.9685 3.13921 22.9945 3.52076C23.0136 3.75783 22.9815 3.99603 22.9001 4.22155C22.8188 4.44707 22.6897 4.65543 22.5205 4.83451L14.6801 12.9622L10.4375 9.48081Z" fill="#6197FF"/>
<path d="M11.3846 12.5188C11.5197 12.63 11.6016 12.7851 11.6125 12.9507C11.6234 13.1163 11.5625 13.2792 11.4429 13.4044L5.81328 19.1606C5.68921 19.2811 5.51893 19.3534 5.33785 19.3624C5.15677 19.3715 4.97881 19.3167 4.84098 19.2093C4.70692 19.0975 4.62588 18.9425 4.61499 18.7773C4.6041 18.612 4.66423 18.4493 4.78264 18.3237L10.4171 12.5675C10.5397 12.4463 10.7094 12.3735 10.89 12.3644C11.0706 12.3553 11.248 12.4107 11.3846 12.5188Z" fill="#FF6197"/>
<path opacity="0.1" d="M12.4861 9.53682C12.7515 9.75572 13.1406 9.73362 13.3794 9.48606L20.1852 2.43193C20.3198 2.30505 20.3952 2.13445 20.3952 1.95678C20.3952 1.77911 20.3198 1.60853 20.1852 1.48165C20.0331 1.37212 19.8405 1.32222 19.649 1.3427C19.4574 1.36318 19.2823 1.4524 19.1613 1.59113L12.4311 8.57146C12.1647 8.84781 12.19 9.29253 12.4861 9.53682Z" fill="white"/>
<path opacity="0.1" d="M14.4691 11.1818C14.7338 11.399 15.121 11.3766 15.3588 11.1302L22.0481 4.20063C22.1159 4.13837 22.1697 4.06434 22.2064 3.9828C22.2432 3.90126 22.2621 3.81381 22.2621 3.7255C22.2621 3.63719 22.2432 3.54974 22.2064 3.4682C22.1697 3.38666 22.1159 3.31263 22.0481 3.25036C21.9735 3.1957 21.8878 3.15517 21.7962 3.13109C21.7045 3.10701 21.6087 3.09985 21.514 3.11001C21.4194 3.12018 21.3278 3.14748 21.2446 3.19035C21.1614 3.23321 21.0881 3.29081 21.029 3.35984L14.413 10.2174C14.1466 10.4936 14.1724 10.9383 14.4691 11.1818Z" fill="white"/>
<path d="M9.3472 9.19622C9.49542 9.04906 9.6989 8.95978 9.91603 8.94662C10.2016 8.92934 10.4856 8.99686 10.7266 9.1393C10.8117 9.18696 10.8912 9.24272 10.9636 9.3057L14.808 12.4675C14.9545 12.5816 15.0745 12.7218 15.1609 12.8799C15.2472 13.0379 15.2981 13.2104 15.3105 13.3871C15.3242 13.5879 15.2528 13.7858 15.1114 13.9389C15.0311 14.0174 14.9344 14.08 14.827 14.1228C14.7021 14.1693 14.5682 14.1916 14.4335 14.1885C14.0814 14.1766 13.7453 14.0493 13.4855 13.8294L9.6411 10.6676C9.45116 10.5286 9.30641 10.3438 9.22278 10.1336C9.13915 9.92349 9.11988 9.69611 9.16707 9.4765C9.20353 9.37174 9.2651 9.27594 9.3472 9.19622Z" fill="#6197FF"/>
<path opacity="0.1" d="M10.3581 9.31091C10.2026 9.18284 10.289 8.96214 10.4796 9.02748C10.6596 9.0892 10.8243 9.18396 10.9636 9.30606L14.808 12.4678C14.9545 12.5819 15.0745 12.7222 15.1609 12.8802C15.2573 13.0568 15.0544 13.1766 14.899 13.0488L10.3581 9.31091Z" fill="white"/>
<path d="M3.57131 20.3532L3.71011 20.4673C3.80816 20.5479 3.95837 20.5398 4.04561 20.4492L4.54245 19.9333C4.62969 19.8428 4.62093 19.704 4.52288 19.6234L4.38407 19.5093C4.28602 19.4287 4.13582 19.4368 4.04858 19.5274L3.55174 20.0433C3.4645 20.1339 3.47326 20.2726 3.57131 20.3532Z" fill="#FF6197"/>
<path d="M21.9801 12.4893H16.9648V13.422H21.9801V12.4893Z" fill="#BCD3FF"/>
<path d="M20.9753 13.0979C21.5013 13.0991 22.0053 13.2929 22.3767 13.6369C22.7482 13.9809 22.9568 14.4469 22.9568 14.9328V26.3755C22.9568 28.9811 21.3925 29.0862 19.4774 29.0862C17.5623 29.0862 15.998 28.9811 15.998 26.3755V14.9328C15.998 14.4469 16.2067 13.9809 16.5781 13.6369C16.9496 13.2929 17.4535 13.0991 17.9795 13.0979H20.9753Z" fill="#E1EBFF"/>
<path d="M20.5582 13.4919C21.0837 13.4919 21.5877 13.6848 21.9593 14.0281C22.3309 14.3714 22.5396 14.837 22.5396 15.3224V26.4586C22.5396 28.7052 21.165 28.5037 19.4774 28.5037C17.7899 28.5037 16.4199 28.7052 16.4199 26.4586V15.3224C16.4199 15.0821 16.4712 14.844 16.5708 14.6219C16.6703 14.3998 16.8163 14.1981 17.0003 14.0281C17.1843 13.8581 17.4027 13.7233 17.6431 13.6313C17.8835 13.5393 18.1412 13.4919 18.4014 13.4919H20.5582Z" fill="#D6E4FF"/>
<path d="M22.5396 19.4528V22.0803C22.5396 29.1438 21.165 28.5089 19.4774 28.5089C17.7899 28.5089 16.4199 29.1438 16.4199 22.0803V19.4528H22.5396Z" fill="#FF6197"/>
<g style="mix-blend-mode:overlay" opacity="0.2">
<path d="M20.9515 27.7639C21.3625 27.7639 21.6957 27.4307 21.6957 27.0197V15.2524C21.6957 14.8414 21.3625 14.5082 20.9515 14.5082C20.5405 14.5082 20.2073 14.8364 20.2073 15.2475C20.2073 17.36 20.2073 23.4972 20.2073 27.0214C20.2073 27.4325 20.5405 27.7639 20.9515 27.7639Z" fill="white"/>
</g>
<path d="M17.4537 11.4079H21.5067C21.6214 11.4067 21.7352 11.4266 21.8415 11.4664C21.9479 11.5061 22.0446 11.565 22.1262 11.6395C22.2077 11.714 22.2725 11.8028 22.3167 11.9006C22.3609 11.9984 22.3836 12.1033 22.3836 12.2093V12.5771C22.3836 12.6619 22.3471 12.7432 22.2823 12.8032C22.2174 12.8631 22.1293 12.8968 22.0376 12.8968H16.9323C16.8405 12.8968 16.7525 12.8631 16.6876 12.8032C16.6227 12.7432 16.5862 12.6619 16.5862 12.5771V12.218C16.585 12.1121 16.6065 12.0069 16.6495 11.9087C16.6926 11.8104 16.7563 11.721 16.8369 11.6457C16.9176 11.5703 17.0137 11.5105 17.1195 11.4697C17.2254 11.4289 17.339 11.4079 17.4537 11.4079Z" fill="#2B2C3A"/>
<g style="mix-blend-mode:overlay">
<path d="M16.5862 12.2087H22.3836V12.5766C22.3836 12.6614 22.3471 12.7427 22.2822 12.8026C22.2173 12.8626 22.1293 12.8963 22.0375 12.8963H16.9322C16.8404 12.8963 16.7524 12.8626 16.6875 12.8026C16.6226 12.7427 16.5862 12.6614 16.5862 12.5766V12.2175V12.2087Z" fill="white" fill-opacity="0.15"/>
</g>
</svg>
