<svg width="36" height="35" viewBox="0 0 36 35" fill="none" xmlns="http://www.w3.org/2000/svg">
<g filter="url(#filter0_d_0_526)">
<path d="M19.35 4.6C19.35 3.02599 18.074 1.75 16.5 1.75C14.926 1.75 13.65 3.02599 13.65 4.6V13.15H5.1C3.52599 13.15 2.25 14.426 2.25 16C2.25 17.574 3.52599 18.85 5.1 18.85H13.65V27.4C13.65 28.974 14.926 30.25 16.5 30.25C18.074 30.25 19.35 28.974 19.35 27.4V18.85H27.9C29.474 18.85 30.75 17.574 30.75 16C30.75 14.426 29.474 13.15 27.9 13.15H19.35V4.6Z" fill="#FF6197"/>
</g>
<defs>
<filter id="filter0_d_0_526" x="0" y="-0.5" width="36" height="36" filterUnits="userSpaceOnUse" color-interpolation-filters="sRGB">
<feFlood flood-opacity="0" result="BackgroundImageFix"/>
<feColorMatrix in="SourceAlpha" type="matrix" values="0 0 0 0 0 0 0 0 0 0 0 0 0 0 0 0 0 0 127 0" result="hardAlpha"/>
<feOffset dx="1.5" dy="1.5"/>
<feGaussianBlur stdDeviation="1.5"/>
<feColorMatrix type="matrix" values="0 0 0 0 0.0687782 0 0 0 0 0.0971668 0 0 0 0 0.170166 0 0 0 0.15 0"/>
<feBlend mode="normal" in2="BackgroundImageFix" result="effect1_dropShadow_0_526"/>
<feBlend mode="normal" in="SourceGraphic" in2="effect1_dropShadow_0_526" result="shape"/>
</filter>
</defs>
</svg>
