<svg width="29" height="30" viewBox="0 0 29 30" fill="none" xmlns="http://www.w3.org/2000/svg">
<circle cx="14.5" cy="15" r="14.25" fill="#D6D6D6"/>
<circle cx="14.4995" cy="15.0001" r="11.9663" fill="#EEEEEE"/>
<path d="M19.6656 12.9411C19.4443 10.386 17.5732 8.93744 14.9779 8.93744C12.2014 8.93744 10.0085 10.7884 10.0085 14.2287C10.0085 17.654 12.1411 19.52 14.9779 19.52C17.9957 19.52 19.5247 17.4277 19.6656 15.6773L16.8288 15.6572C16.688 16.5374 16.0643 17.0856 15.0382 17.0856C13.6751 17.0856 12.8855 16.1199 12.8855 14.2287C12.8855 12.4381 13.65 11.3718 15.0583 11.3718C16.1347 11.3718 16.7483 12.0056 16.8288 12.9411H19.6656Z" fill="#EAEAEB"/>
<path d="M9.38477 20.6397H20.2692V22.2493H9.38477V20.6397Z" fill="#EAEAEB"/>
<path d="M19.3382 12.3621C19.1169 9.80697 17.2458 8.3584 14.6505 8.3584C11.874 8.3584 9.68106 10.2093 9.68106 13.6497C9.68106 17.075 11.8137 18.941 14.6505 18.941C17.6683 18.941 19.1974 16.8486 19.3382 15.0983L16.5014 15.0781C16.3606 15.9584 15.7369 16.5066 14.7108 16.5066C13.3478 16.5066 12.5581 15.5409 12.5581 13.6497C12.5581 11.8591 13.3226 10.7928 14.7309 10.7928C15.8073 10.7928 16.4209 11.4265 16.5014 12.3621H19.3382Z" fill="#95969D"/>
<path d="M9.05737 20.0607H19.9418V21.6702H9.05737V20.0607Z" fill="#95969D"/>
<path d="M23.6605 7.32035C21.5376 5.39841 18.7215 4.22773 15.6321 4.22773C9.02358 4.22773 3.66591 9.58523 3.66591 16.1941C3.66591 19.1265 4.72083 21.8126 6.47192 23.8936C4.05324 21.7041 2.53369 18.5395 2.53369 15.02C2.53369 8.41121 7.89136 3.05371 14.4999 3.05371C18.1765 3.05371 21.4657 4.71153 23.6605 7.32035Z" fill="#EAEAEB"/>
</svg>
