<svg width="19" height="18" viewBox="0 0 19 18" fill="none" xmlns="http://www.w3.org/2000/svg">
<path opacity="0.5" d="M9.5 7.5C8.09375 7.5 7 8.625 7 10C7 11.4063 8.09375 12.5 9.5 12.5C10.875 12.5 12 11.4063 12 10C12 8.625 10.875 7.5 9.5 7.5ZM9.5 11.5C8.65625 11.5 8 10.8438 8 10C8 9.1875 8.65625 8.5 9.5 8.5C10.3125 8.5 11 9.1875 11 10C11 10.8438 10.3125 11.5 9.5 11.5ZM16.5 3H11.5V2C11.5 1.46875 11.0313 1 10.5 1H8.5C7.9375 1 7.5 1.46875 7.5 2V3H2.5C1.375 3 0.5 3.90625 0.5 5V15C0.5 16.125 1.375 17 2.5 17H16.5C17.5938 17 18.5 16.125 18.5 15V5C18.5 3.90625 17.5938 3 16.5 3ZM8.5 2H10.5V5H8.5V2ZM12.5 16H6.5V15.3438C6.5 15.0625 6.5625 14.7813 6.71875 14.5625C6.9375 14.2188 7.34375 14 7.8125 14C8.3125 14 8.5625 14.25 9.5 14.25C10.4063 14.25 10.6563 14 11.1563 14C11.625 14 12.0313 14.2188 12.25 14.5625C12.4063 14.7813 12.5 15.0625 12.5 15.3438V16ZM17.5 15C17.5 15.5625 17.0312 16 16.5 16H13.5V15.3438C13.5 14.8438 13.3438 14.375 13.0938 14C12.6563 13.3438 11.9063 13 11.1563 13C10.4688 13 10.2813 13.25 9.5 13.25C8.6875 13.25 8.5 13 7.8125 13C7.0625 13 6.34375 13.3438 5.90625 14C5.65625 14.375 5.5 14.8438 5.5 15.3438V16H2.5C1.9375 16 1.5 15.5625 1.5 15V5C1.5 4.46875 1.9375 4 2.5 4H7.5V6H11.5V4H16.5C17.0312 4 17.5 4.46875 17.5 5V15Z" fill="#040E16" stroke="#040E16" stroke-width="0.2"/>
</svg>
