<svg width="32" height="32" viewBox="0 0 32 32" fill="none" xmlns="http://www.w3.org/2000/svg">
<path d="M0 16C0 7.16344 7.16344 0 16 0C24.8366 0 32 7.16344 32 16C32 24.8366 24.8366 32 16 32C7.16344 32 0 24.8366 0 16Z" fill="#6197FF"/>
<path d="M21.2812 16.125C21.2812 16.3535 21.0781 16.5312 20.875 16.5312H16.4062V21C16.4062 21.2285 16.2031 21.4316 16 21.4316C15.7715 21.4316 15.5938 21.2285 15.5938 21V16.5312H11.125C10.8965 16.5312 10.7188 16.3535 10.7188 16.1504C10.7188 15.9219 10.8965 15.7188 11.125 15.7188H15.5938V11.25C15.5938 11.0469 15.7715 10.8691 16 10.8691C16.2031 10.8691 16.4062 11.0469 16.4062 11.25V15.7188H20.875C21.0781 15.7188 21.2812 15.9219 21.2812 16.125Z" fill="white"/>
<path d="M16 31C7.71573 31 1 24.2843 1 16H-1C-1 25.3888 6.61116 33 16 33V31ZM31 16C31 24.2843 24.2843 31 16 31V33C25.3888 33 33 25.3888 33 16H31ZM16 1C24.2843 1 31 7.71573 31 16H33C33 6.61116 25.3888 -1 16 -1V1ZM16 -1C6.61116 -1 -1 6.61116 -1 16H1C1 7.71573 7.71573 1 16 1V-1Z" fill="white"/>
</svg>
