<svg width="46" height="46" viewBox="0 0 46 46" fill="none" xmlns="http://www.w3.org/2000/svg">
<path d="M0 23C0 10.2975 10.2975 0 23 0C35.7025 0 46 10.2975 46 23C46 35.7025 35.7025 46 23 46C10.2975 46 0 35.7025 0 23Z" fill="#D82B88"/>
<path d="M15.3722 15.4545H18.5966L22.9148 25.9943H23.0852L27.4034 15.4545H30.6278V30H28.0994V20.0071H27.9645L23.9446 29.9574H22.0554L18.0355 19.9858H17.9006V30H15.3722V15.4545Z" fill="white"/>
<path d="M23 45C10.8497 45 1 35.1503 1 23H-1C-1 36.2548 9.74517 47 23 47V45ZM45 23C45 35.1503 35.1503 45 23 45V47C36.2548 47 47 36.2548 47 23H45ZM23 1C35.1503 1 45 10.8497 45 23H47C47 9.74517 36.2548 -1 23 -1V1ZM23 -1C9.74517 -1 -1 9.74517 -1 23H1C1 10.8497 10.8497 1 23 1V-1Z" fill="white"/>
</svg>
